<svg xmlns="http://www.w3.org/2000/svg" viewBox="0 0 500 500"><g id="freepik--background-complete--inject-78"><path d="M316.74,250.68l-118.45-1.11-35.9-.17-9.76,0-2.54,0a4.35,4.35,0,0,0-.86,0,8.08,8.08,0,0,0,.86.05l2.54.06,9.76.12,35.9.19,118.46.07c46.23,0,88.1.06,118.41.27,15.15.11,27.42.25,35.89.41,4.24.08,7.53.16,9.76.24a17.27,17.27,0,0,1,3.4.26,18.72,18.72,0,0,1-3.4.21c-2.23.06-5.52.11-9.76.15-8.48.08-20.74.09-35.9.05C404.84,251.5,363,251.15,316.74,250.68Z" style="fill:#f5f5f5"></path><path d="M315.82,260.82,199,241.83l-35.43-5.58-9.65-1.45-2.51-.35c-.57-.07-.86-.1-.86-.09a5.24,5.24,0,0,0,.84.19l2.5.44,9.62,1.6,35.43,5.61,117,17.95c45.68,7,87,13.35,116.93,18.15,15,2.39,27.05,4.38,35.4,5.82,4.17.72,7.41,1.3,9.6,1.72a16.85,16.85,0,0,1,3.32.77,19.15,19.15,0,0,1-3.4-.3c-2.21-.28-5.47-.72-9.67-1.32-8.38-1.21-20.5-3-35.47-5.38C402.72,275,361.42,268.27,315.82,260.82Z" style="fill:#f5f5f5"></path><path d="M313.28,270.7,201,234.06l-34.09-10.94-9.29-2.91-2.43-.72a5.13,5.13,0,0,0-.84-.22,4.8,4.8,0,0,0,.81.32l2.39.82,9.24,3.05,34.08,11L313.5,270.05c44,13.88,83.77,26.5,112.53,35.81,14.38,4.66,26,8.47,34,11.17,4,1.35,7.1,2.42,9.2,3.17a18.07,18.07,0,0,1,3.15,1.27,18,18,0,0,1-3.31-.81c-2.14-.61-5.29-1.55-9.33-2.79-8.09-2.47-19.76-6.13-34.16-10.73C396.79,298,357.09,285,313.28,270.7Z" style="fill:#f5f5f5"></path><path d="M309.16,280.06l-105-53.36-31.89-16-8.7-4.29-2.28-1.09a5.53,5.53,0,0,0-.79-.34,5.83,5.83,0,0,0,.74.43l2.23,1.17,8.64,4.43L204,227l105.46,52.42c41.18,20.43,78.44,39,105.33,52.58,13.45,6.79,24.31,12.34,31.78,16.23,3.74,1.94,6.63,3.47,8.58,4.53a19.11,19.11,0,0,1,2.91,1.73,18.37,18.37,0,0,1-3.14-1.31c-2-.93-5-2.34-8.76-4.18-7.59-3.68-18.52-9.09-32-15.82C387.23,319.74,350.12,300.91,309.16,280.06Z" style="fill:#f5f5f5"></path><path d="M303.59,288.68,208.49,220l-28.92-20.67-7.91-5.56-2.07-1.42a5.56,5.56,0,0,0-.73-.46,4.09,4.09,0,0,0,.67.54l2,1.5,7.82,5.68,28.91,20.69L304,288.13c37.38,26.43,71.2,50.42,95.58,67.93,12.18,8.76,22,15.88,28.77,20.86,3.38,2.49,6,4.44,7.74,5.78a18.87,18.87,0,0,1,2.6,2.15,17.32,17.32,0,0,1-2.89-1.77c-1.84-1.22-4.53-3.06-8-5.46-6.9-4.78-16.83-11.78-29.05-20.49C374.32,339.73,340.69,315.49,303.59,288.68Z" style="fill:#f5f5f5"></path><path d="M296.71,296.34l-83-82.18-25.26-24.79-6.92-6.69L179.75,181a6.67,6.67,0,0,0-.65-.56,5.23,5.23,0,0,0,.57.63l1.75,1.79,6.81,6.79,25.25,24.8,83.73,81.45c32.7,31.77,62.26,60.58,83.54,81.56,10.64,10.49,19.21,19,25.09,24.95,2.94,3,5.2,5.29,6.72,6.89a17.58,17.58,0,0,1,2.22,2.51,17.34,17.34,0,0,1-2.57-2.18c-1.62-1.49-4-3.72-7-6.6-6.05-5.78-14.74-14.19-25.42-24.64C358.41,357.46,329.06,328.44,296.71,296.34Z" style="fill:#f5f5f5"></path><path d="M288.68,302.87l-68.79-93.72-21-28.31-5.77-7.65-1.52-2a4.75,4.75,0,0,0-.55-.65,5.6,5.6,0,0,0,.46.71c.35.49.82,1.16,1.45,2l5.64,7.74,21,28.32,69.67,93.12c27.22,36.32,51.82,69.25,69.48,93.19,8.83,12,15.93,21.69,20.79,28.44,2.42,3.38,4.29,6,5.53,7.81a16.28,16.28,0,0,1,1.79,2.83,18.43,18.43,0,0,1-2.18-2.55c-1.37-1.72-3.35-4.27-5.87-7.58-5.06-6.62-12.29-16.24-21.17-28.18C339.85,372.58,315.5,339.47,288.68,302.87Z" style="fill:#f5f5f5"></path><path d="M279.71,308.11l-52.87-103C220,192,214.5,181.31,210.66,173.93l-4.46-8.43L205,163.32a4.19,4.19,0,0,0-.44-.73,5.85,5.85,0,0,0,.34.77l1.1,2.23c1,2,2.46,4.83,4.33,8.5,3.83,7.39,9.34,18,16.16,31.16,13.79,26.26,32.81,62.5,53.83,102.55s40,76.27,53.63,102.6c6.8,13.17,12.25,23.85,16,31.26,1.86,3.7,3.28,6.59,4.21,8.56a17.34,17.34,0,0,1,1.32,3.06,17.2,17.2,0,0,1-1.75-2.85c-1.08-1.9-2.62-4.73-4.58-8.38-3.93-7.3-9.53-17.91-16.38-31.05C319,384.73,300.31,348.33,279.71,308.11Z" style="fill:#f5f5f5"></path><path d="M270,311.91c-13.87-42.89-26.43-81.7-35.53-109.83-4.61-14-8.34-25.36-10.94-33.23-1.31-3.9-2.33-6.92-3-9-.35-1-.63-1.78-.82-2.33a5,5,0,0,0-.32-.79,6.27,6.27,0,0,0,.22.82l.72,2.37,2.9,9c2.58,7.88,6.31,19.23,10.91,33.24,9.36,28.05,22.29,66.75,36.56,109.51s27.2,81.45,36.36,109.53c4.58,14,8.24,25.42,10.7,33.3,1.23,3.94,2.17,7,2.77,9.1a15.48,15.48,0,0,1,.8,3.22,16.78,16.78,0,0,1-1.26-3.08c-.76-2-1.82-5.07-3.17-9-2.7-7.81-6.51-19.15-11.15-33.17C296.42,393.59,283.83,354.79,270,311.91Z" style="fill:#f5f5f5"></path><path d="M259.79,314.18c-6.76-44.48-12.87-84.72-17.31-113.9-2.28-14.54-4.13-26.31-5.42-34.49-.66-4-1.18-7.19-1.54-9.36-.19-1.05-.33-1.86-.43-2.43a5.26,5.26,0,0,0-.19-.83,6.54,6.54,0,0,0,.08.84c.08.58.19,1.39.33,2.45.33,2.18.8,5.33,1.4,9.39,1.28,8.17,3.12,19.94,5.39,34.49,4.71,29.13,11.21,69.32,18.38,113.74s13.67,84.58,18.17,113.72c2.25,14.56,4,26.36,5.18,34.52.58,4.08,1,7.25,1.26,9.41a16,16,0,0,1,.27,3.3,16.93,16.93,0,0,1-.75-3.23c-.41-2.13-1-5.28-1.67-9.35-1.4-8.12-3.33-19.9-5.64-34.45C272.66,398.88,266.51,358.64,259.79,314.18Z" style="fill:#f5f5f5"></path><path d="M249.34,314.87c.42-45,.8-85.64,1.07-115.13.06-14.71.12-26.62.15-34.89,0-4.09,0-7.28,0-9.48,0-1.07,0-1.88,0-2.47a5.34,5.34,0,0,0-.05-.84,4.47,4.47,0,0,0-.06.84c0,.59,0,1.4-.06,2.47,0,2.2-.06,5.38-.11,9.48,0,8.27-.1,20.18-.17,34.89,0,29.49,0,70.17,0,115.13s0,85.63-.2,115.08c-.1,14.73-.24,26.65-.4,34.89-.08,4.12-.16,7.32-.25,9.49a17.09,17.09,0,0,1-.25,3.3,16.44,16.44,0,0,1-.23-3.31c-.06-2.17-.12-5.36-.16-9.48-.08-8.24-.1-20.16-.07-34.89C248.55,400.49,248.89,359.8,249.34,314.87Z" style="fill:#f5f5f5"></path><path d="M238.91,314c7.6-44.35,14.48-84.48,19.46-113.57,2.42-14.52,4.37-26.28,5.73-34.44.64-4.05,1.14-7.2,1.48-9.38.16-1.05.28-1.86.36-2.44a5.7,5.7,0,0,0,.09-.84,4.13,4.13,0,0,0-.19.83c-.11.57-.26,1.38-.46,2.42-.38,2.17-.93,5.32-1.63,9.35-1.37,8.17-3.33,19.92-5.76,34.44L239.6,314.09c-7.15,44.39-13.69,84.58-18.6,113.65-2.45,14.54-4.49,26.29-6,34.41-.74,4.05-1.33,7.2-1.76,9.33a16.73,16.73,0,0,1-.79,3.23,16.62,16.62,0,0,1,.31-3.31c.28-2.15.73-5.32,1.35-9.39,1.24-8.16,3.11-19.94,5.51-34.48C224.42,398.44,231.27,358.3,238.91,314Z" style="fill:#f5f5f5"></path><path d="M228.74,311.51c14.69-42.63,28-81.2,37.63-109.17,4.74-14,8.57-25.28,11.24-33.13l3-9c.32-1,.57-1.8.75-2.36a6.8,6.8,0,0,0,.22-.82,5,5,0,0,0-.33.78l-.84,2.33-3.13,9c-2.67,7.85-6.51,19.16-11.26,33.12-9.37,28.05-22.3,66.75-36.59,109.5s-27.22,81.44-36.78,109.4c-4.77,14-8.7,25.27-11.47,33.06-1.38,3.89-2.48,6.91-3.26,8.94a16,16,0,0,1-1.3,3.07,16.65,16.65,0,0,1,.84-3.22c.62-2.08,1.59-5.14,2.86-9.07,2.53-7.86,6.3-19.21,11-33.21C200.75,392.7,214,354.11,228.74,311.51Z" style="fill:#f5f5f5"></path><path d="M219.11,307.52c21.41-39.85,40.79-75.91,54.83-102.06l16.46-31,4.41-8.46c.48-1,.86-1.69,1.12-2.22a4.2,4.2,0,0,0,.35-.77,6.77,6.77,0,0,0-.44.73c-.29.51-.69,1.23-1.21,2.17-1.06,1.94-2.58,4.76-4.55,8.39-3.9,7.35-9.53,17.93-16.48,31L219.73,307.83c-21,40-40.07,76.26-54,102.4-7,13.08-12.68,23.63-16.67,30.9-2,3.63-3.57,6.44-4.67,8.33a18.37,18.37,0,0,1-1.77,2.84,16.54,16.54,0,0,1,1.34-3.05c1-2,2.41-4.84,4.3-8.52,3.78-7.38,9.34-18,16.26-31.11C178.33,383.42,197.68,347.34,219.11,307.52Z" style="fill:#f5f5f5"></path><path d="M210.24,302.11c27.56-36.11,52.5-68.78,70.57-92.47l21.25-28.12,5.72-7.69,1.46-2a6.29,6.29,0,0,0,.47-.7,3.84,3.84,0,0,0-.56.64c-.36.47-.87,1.12-1.54,2-1.35,1.77-3.32,4.32-5.84,7.6l-21.26,28.11L210.8,302.51C183.63,338.87,159,371.75,141,395.45c-9,11.85-16.33,21.41-21.45,28-2.56,3.28-4.56,5.82-5.94,7.52a18.32,18.32,0,0,1-2.21,2.53,17,17,0,0,1,1.82-2.8c1.26-1.8,3.15-4.41,5.61-7.77,4.92-6.71,12.12-16.36,21.06-28.25C157.75,370.88,182.67,338.18,210.24,302.11Z" style="fill:#f5f5f5"></path><path d="M202.35,295.43l84.51-80.68,25.49-24.57,6.88-6.73,1.76-1.77a6,6,0,0,0,.58-.63,7.26,7.26,0,0,0-.65.55l-1.84,1.71-7,6.62-25.51,24.56-83.75,81.42c-32.66,31.8-62.29,60.55-83.86,81.24-10.79,10.35-19.56,18.69-25.66,24.4-3,2.86-5.44,5.06-7.08,6.54a17.77,17.77,0,0,1-2.59,2.16,17.44,17.44,0,0,1,2.25-2.5c1.53-1.58,3.82-3.87,6.79-6.82,5.93-5.88,14.59-14.33,25.33-24.72C139.5,355.43,169.34,326.89,202.35,295.43Z" style="fill:#f5f5f5"></path><path d="M195.62,287.63,292,220.71l29.11-20.42,7.87-5.61,2-1.48a6.91,6.91,0,0,0,.67-.53,4.7,4.7,0,0,0-.73.45l-2.09,1.4-8,5.49-29.12,20.4L196,288.18c-37.35,26.48-71.22,50.4-95.84,67.58-12.31,8.59-22.31,15.5-29.25,20.22-3.48,2.37-6.19,4.18-8,5.39a17,17,0,0,1-2.9,1.74A18.25,18.25,0,0,1,62.62,381c1.76-1.33,4.39-3.26,7.79-5.71,6.81-4.92,16.71-12,29-20.6C123.93,337.4,158,313.72,195.62,287.63Z" style="fill:#f5f5f5"></path><path d="M190.23,278.91l106-51.45,32-15.74,8.68-4.34,2.24-1.16a4.49,4.49,0,0,0,.75-.43,6.27,6.27,0,0,0-.8.34l-2.28,1.07-8.75,4.21L296,227.13,190.55,279.52C149.39,300,112.1,318.48,85,331.71c-13.54,6.61-24.52,11.91-32.14,15.52-3.81,1.81-6.78,3.19-8.81,4.1a17.51,17.51,0,0,1-3.15,1.28,17.68,17.68,0,0,1,2.93-1.7c2-1.05,4.86-2.55,8.62-4.46,7.51-3.82,18.42-9.27,31.93-15.94C111.41,317.17,148.86,299,190.23,278.91Z" style="fill:#f5f5f5"></path><path d="M186.32,269.48l113-34.6,34.18-10.65,9.28-3,2.4-.8a5.36,5.36,0,0,0,.8-.3,4.93,4.93,0,0,0-.84.2l-2.43.71-9.32,2.82-34.19,10.63-112.65,35.6c-44,13.93-83.78,26.49-112.67,35.41C59.42,310,47.71,313.55,39.6,316c-4.06,1.2-7.21,2.11-9.36,2.7a17.71,17.71,0,0,1-3.32.78,17.69,17.69,0,0,1,3.17-1.24c2.1-.73,5.22-1.77,9.23-3.08,8-2.63,19.7-6.34,34.12-10.86C102.28,295.21,142.21,283,186.32,269.48Z" style="fill:#f5f5f5"></path><path d="M184,259.56l117.18-16.9,35.49-5.29,9.63-1.5,2.5-.42a6.31,6.31,0,0,0,.85-.18,5.5,5.5,0,0,0-.86.07l-2.52.33L336.58,237l-35.49,5.26-117,17.94c-45.66,7-87,13.34-117,17.73-15,2.2-27.12,3.92-35.52,5.05-4.2.56-7.46,1-9.68,1.24a18.39,18.39,0,0,1-3.4.26,18.37,18.37,0,0,1,3.33-.73c2.19-.4,5.44-1,9.62-1.64,8.36-1.36,20.47-3.24,35.44-5.5C96.82,272.12,138.23,266.12,184,259.56Z" style="fill:#f5f5f5"></path><path d="M183.26,249.4l118.45,1,35.9.12,9.76,0,2.54,0a7.56,7.56,0,0,0,.87,0,4.93,4.93,0,0,0-.87-.06l-2.54,0-9.76-.11-35.9-.15-118.46.07c-46.23.06-88.1,0-118.41-.13-15.15-.08-27.42-.21-35.89-.36-4.24-.07-7.53-.15-9.76-.23a19.44,19.44,0,0,1-3.41-.25,18.3,18.3,0,0,1,3.41-.22c2.23-.06,5.52-.12,9.76-.16,8.48-.09,20.74-.12,35.9-.09C95.16,248.69,137,249,183.26,249.4Z" style="fill:#f5f5f5"></path><path d="M184.17,239.26,301,258.11l35.44,5.54,9.65,1.44,2.51.34a5.08,5.08,0,0,0,.86.08,5.86,5.86,0,0,0-.84-.18l-2.5-.44-9.62-1.58-35.44-5.57-117-17.81c-45.68-6.92-87-13.24-117-18-15-2.37-27-4.35-35.4-5.78-4.18-.71-7.41-1.29-9.6-1.71a18.49,18.49,0,0,1-3.33-.76,18.28,18.28,0,0,1,3.4.29c2.22.27,5.48.72,9.67,1.31,8.39,1.2,20.51,3,35.48,5.33C97.25,225.24,138.56,231.87,184.17,239.26Z" style="fill:#f5f5f5"></path><path d="M186.7,229.38l112.35,36.5,34.1,10.9,9.29,2.89,2.43.73a4.35,4.35,0,0,0,.84.21,5.58,5.58,0,0,0-.81-.31l-2.39-.82-9.25-3-34.09-10.92L186.48,230c-44-13.82-83.81-26.4-112.58-35.67-14.39-4.64-26-8.44-34-11.13-4-1.35-7.11-2.41-9.21-3.16a19.15,19.15,0,0,1-3.16-1.26,17.89,17.89,0,0,1,3.31.8c2.15.61,5.3,1.54,9.34,2.78,8.09,2.46,19.77,6.11,34.17,10.69C103.14,202.22,142.86,215.09,186.7,229.38Z" style="fill:#f5f5f5"></path><path d="M190.8,220l105,53.22,31.91,16,8.71,4.28,2.28,1.09a7.66,7.66,0,0,0,.79.34,4.1,4.1,0,0,0-.74-.44l-2.23-1.17-8.64-4.41-31.9-16-105.54-52.3c-41.21-20.37-78.49-38.89-105.4-52.44-13.45-6.78-24.32-12.31-31.8-16.19-3.74-1.94-6.63-3.47-8.58-4.53a18.06,18.06,0,0,1-2.91-1.72,16.84,16.84,0,0,1,3.13,1.3c2,.93,5,2.34,8.77,4.17,7.59,3.67,18.53,9.06,32,15.79C112.68,180.43,149.82,199.21,190.8,220Z" style="fill:#f5f5f5"></path><path d="M196.36,211.39l95.19,68.53,28.95,20.63,7.91,5.55c.9.62,1.58,1.09,2.08,1.42a4.85,4.85,0,0,0,.73.46,5.9,5.9,0,0,0-.67-.54l-2-1.5-7.82-5.67-28.94-20.65L196,211.94c-37.43-26.39-71.28-50.34-95.67-67.82-12.2-8.74-22-15.85-28.81-20.82-3.38-2.48-6-4.43-7.74-5.77a18.08,18.08,0,0,1-2.6-2.15A17.06,17.06,0,0,1,64,117.15c1.85,1.22,4.54,3.06,8,5.45,6.9,4.77,16.84,11.76,29.08,20.45C125.56,160.42,159.23,184.62,196.36,211.39Z" style="fill:#f5f5f5"></path><path d="M203.23,203.72,286.3,285.8l25.29,24.76c3,2.88,5.32,5.13,6.93,6.68l1.82,1.72a6.67,6.67,0,0,0,.65.56,4.76,4.76,0,0,0-.57-.64l-1.75-1.78-6.83-6.78-25.28-24.78L202.74,204.2c-32.75-31.73-62.35-60.5-83.65-81.46-10.66-10.47-19.24-19-25.12-24.92-3-3-5.21-5.28-6.73-6.88A17.36,17.36,0,0,1,85,88.43a17.54,17.54,0,0,1,2.57,2.18c1.63,1.49,4,3.71,7,6.6,6.06,5.76,14.76,14.17,25.46,24.6C141.46,142.67,170.84,171.66,203.23,203.72Z" style="fill:#f5f5f5"></path><path d="M211.25,197.18l68.92,93.64,21,28.28,5.78,7.64,1.52,2a5.86,5.86,0,0,0,.55.65,4.42,4.42,0,0,0-.46-.71c-.34-.49-.82-1.16-1.45-2l-5.65-7.73-21-28.3-69.79-93c-27.26-36.28-51.9-69.18-69.59-93.1-8.85-12-16-21.67-20.83-28.42-2.43-3.37-4.3-6-5.55-7.81a16.87,16.87,0,0,1-1.79-2.82A17.22,17.22,0,0,1,115.11,68c1.36,1.71,3.35,4.26,5.88,7.57,5.06,6.61,12.31,16.23,21.2,28.15C160,127.53,184.38,160.61,211.25,197.18Z" style="fill:#f5f5f5"></path><path d="M220.22,191.93c20.69,40.21,39.42,76.59,53,103L289.44,326c1.93,3.64,3.44,6.47,4.47,8.43.52.94.91,1.66,1.19,2.18a8.46,8.46,0,0,0,.44.73,4.73,4.73,0,0,0-.34-.78c-.26-.53-.63-1.26-1.1-2.22l-4.34-8.5-16.2-31.13c-13.82-26.26-32.89-62.47-54-102.49S179.45,116,165.83,89.7c-6.82-13.15-12.28-23.83-16-31.23-1.86-3.7-3.28-6.59-4.22-8.56a16.53,16.53,0,0,1-1.32-3A17,17,0,0,1,146,49.7c1.08,1.9,2.63,4.72,4.6,8.37,3.93,7.3,9.54,17.9,16.41,31C180.8,115.35,199.56,151.73,220.22,191.93Z" style="fill:#f5f5f5"></path><path d="M229.92,188.12c13.93,42.87,26.54,81.66,35.67,109.78l11,33.22,3.06,9c.35,1,.63,1.78.82,2.33a4.47,4.47,0,0,0,.32.79,5.46,5.46,0,0,0-.21-.82c-.18-.56-.42-1.34-.73-2.36-.68-2.1-1.65-5.15-2.91-9.06-2.6-7.87-6.34-19.21-10.95-33.22-9.41-28-22.38-66.72-36.71-109.47S202,106.92,192.76,78.85c-4.6-14-8.27-25.41-10.75-33.29-1.23-3.94-2.17-7-2.78-9.1a17,17,0,0,1-.81-3.22,16.59,16.59,0,0,1,1.28,3.08c.75,2,1.82,5.06,3.18,9,2.7,7.8,6.53,19.13,11.19,33.15C203.39,106.47,216,145.26,229.92,188.12Z" style="fill:#f5f5f5"></path><path d="M240.13,185.84c6.81,44.46,13,84.7,17.45,113.87,2.31,14.54,4.17,26.31,5.47,34.48l1.55,9.37c.19,1,.34,1.85.44,2.43a6.43,6.43,0,0,0,.18.82,5.27,5.27,0,0,0-.07-.84c-.08-.58-.2-1.39-.34-2.44-.33-2.18-.8-5.34-1.41-9.39-1.29-8.17-3.14-19.95-5.44-34.49-4.74-29.12-11.29-69.31-18.53-113.71s-13.78-84.57-18.31-113.7c-2.27-14.56-4.05-26.36-5.22-34.52-.59-4.08-1-7.25-1.28-9.4a17.78,17.78,0,0,1-.28-3.31,15.72,15.72,0,0,1,.76,3.23c.42,2.14,1,5.29,1.69,9.35,1.41,8.12,3.35,19.9,5.68,34.45C227.15,101.14,233.35,141.39,240.13,185.84Z" style="fill:#f5f5f5"></path><path d="M250.57,185.13c-.36,45-.68,85.64-.92,115.13,0,14.71-.08,26.62-.1,34.89,0,4.1,0,7.28,0,9.49,0,1.06,0,1.88,0,2.46a4.12,4.12,0,0,0,.05.84,7.62,7.62,0,0,0,0-.84q0-.87.06-2.46c0-2.21.06-5.39.1-9.49,0-8.27.08-20.18.13-34.89,0-29.49-.09-70.17-.15-115.13s-.11-85.63.06-115.08c.08-14.73.2-26.65.35-34.89.07-4.12.15-7.32.24-9.49a16.12,16.12,0,0,1,.25-3.3,17.45,17.45,0,0,1,.23,3.31c.06,2.17.12,5.36.17,9.48.09,8.24.13,20.16.11,34.89C251.25,99.51,251,140.2,250.57,185.13Z" style="fill:#f5f5f5"></path><path d="M261,186c-7.54,44.35-14.37,84.49-19.32,113.59-2.39,14.52-4.33,26.28-5.68,34.45-.63,4.05-1.13,7.2-1.47,9.38-.15,1.05-.27,1.86-.35,2.44a4.35,4.35,0,0,0-.09.84,5.28,5.28,0,0,0,.19-.82q.17-.87.45-2.43c.38-2.17.93-5.32,1.63-9.36,1.35-8.16,3.3-19.92,5.7-34.44,4.68-29.14,11.13-69.34,18.25-113.76s13.57-84.6,18.45-113.68c2.43-14.53,4.46-26.29,5.92-34.41.73-4.05,1.32-7.2,1.75-9.33a17.34,17.34,0,0,1,.78-3.23,16,16,0,0,1-.3,3.3c-.27,2.16-.73,5.33-1.34,9.4-1.22,8.15-3.09,19.94-5.46,34.48C275.38,101.53,268.59,141.68,261,186Z" style="fill:#f5f5f5"></path><path d="M271.18,188.46c-14.64,42.65-27.88,81.24-37.49,109.22-4.72,14-8.53,25.29-11.19,33.15l-3,9c-.32,1-.57,1.79-.74,2.35a3.94,3.94,0,0,0-.22.82,5.86,5.86,0,0,0,.32-.78l.84-2.33c.72-2.09,1.77-5.11,3.12-9l11.22-33.14c9.33-28.06,22.21-66.77,36.44-109.55s27.11-81.47,36.63-109.44c4.76-14,8.67-25.28,11.43-33.07,1.38-3.9,2.47-6.91,3.24-9a16.88,16.88,0,0,1,1.3-3.07,16,16,0,0,1-.83,3.22c-.62,2.08-1.58,5.14-2.84,9.08-2.53,7.86-6.28,19.21-11,33.21C299.07,107.24,285.85,145.85,271.18,188.46Z" style="fill:#f5f5f5"></path><path d="M280.82,192.44l-54.7,102.13-16.42,31-4.4,8.47-1.12,2.22a7.33,7.33,0,0,0-.35.77,5.25,5.25,0,0,0,.45-.73l1.2-2.17,4.54-8.4c3.89-7.35,9.51-17.94,16.44-31L280.2,192.13c20.94-40.06,40-76.31,53.9-102.47,7-13.08,12.65-23.64,16.63-30.91,2-3.64,3.57-6.45,4.65-8.34a16.41,16.41,0,0,1,1.78-2.84,17.19,17.19,0,0,1-1.35,3c-.95,2-2.39,4.84-4.28,8.53-3.77,7.38-9.31,18-16.22,31.12C321.5,116.49,302.19,152.6,280.82,192.44Z" style="fill:#f5f5f5"></path><path d="M289.69,197.84,219.24,290.4,198,318.55l-5.7,7.69-1.47,2a4.42,4.42,0,0,0-.46.71,5.86,5.86,0,0,0,.55-.65c.37-.46.88-1.11,1.54-2l5.83-7.61,21.23-28.13,69.58-93.18c27.13-36.39,51.75-69.3,69.72-93,9-11.86,16.29-21.43,21.4-28,2.56-3.29,4.56-5.83,5.94-7.53a18,18,0,0,1,2.2-2.53,16.62,16.62,0,0,1-1.81,2.81c-1.26,1.79-3.15,4.41-5.6,7.77-4.92,6.71-12.1,16.38-21,28.27C342.09,129,317.22,161.74,289.69,197.84Z" style="fill:#f5f5f5"></path><path d="M297.59,204.52l-84.4,80.78-25.46,24.6-6.87,6.74-1.76,1.77a4.94,4.94,0,0,0-.58.63,6.67,6.67,0,0,0,.65-.56l1.83-1.7,7-6.64,25.47-24.58L297.1,204c32.62-31.85,62.21-60.64,83.76-81.35,10.77-10.36,19.53-18.71,25.62-24.43,3-2.87,5.44-5.07,7.07-6.55a16.94,16.94,0,0,1,2.59-2.16A18.53,18.53,0,0,1,413.89,92c-1.53,1.59-3.81,3.89-6.77,6.83-5.93,5.89-14.57,14.35-25.3,24.76C360.37,144.44,330.56,173,297.59,204.52Z" style="fill:#f5f5f5"></path><path d="M304.33,212.3l-96.31,67L178.94,299.8l-7.87,5.62-2,1.48a5.55,5.55,0,0,0-.67.53,4.28,4.28,0,0,0,.73-.45l2.08-1.4,8-5.5,29.09-20.44,95.68-67.89c37.32-26.52,71.15-50.49,95.75-67.7,12.3-8.6,22.29-15.52,29.23-20.25,3.47-2.37,6.18-4.19,8-5.4a18.6,18.6,0,0,1,2.9-1.75,17,17,0,0,1-2.62,2.13c-1.76,1.33-4.39,3.26-7.79,5.72-6.79,4.93-16.68,12-28.95,20.63C376,162.45,341.94,186.17,304.33,212.3Z" style="fill:#f5f5f5"></path><path d="M309.73,221,203.82,272.6l-32,15.78-8.67,4.35-2.24,1.16a4.49,4.49,0,0,0-.75.43,4.91,4.91,0,0,0,.79-.33l2.29-1.08,8.74-4.22,32-15.76,105.41-52.52c41.13-20.53,78.4-39.06,105.47-52.32,13.53-6.63,24.51-12,32.13-15.57,3.8-1.81,6.77-3.19,8.8-4.11a18.3,18.3,0,0,1,3.14-1.28,18.17,18.17,0,0,1-2.92,1.71c-2,1-4.86,2.55-8.62,4.47-7.5,3.83-18.4,9.29-31.91,16C388.5,182.66,351.08,200.92,309.73,221Z" style="fill:#f5f5f5"></path><path d="M313.66,230.45,200.72,265.19l-34.17,10.69-9.27,3-2.4.8a5.36,5.36,0,0,0-.8.3,4.93,4.93,0,0,0,.84-.2l2.43-.71,9.31-2.83,34.18-10.67L313.45,229.8c43.93-14,83.74-26.59,112.62-35.54,14.44-4.48,26.14-8.06,34.24-10.47,4.06-1.2,7.21-2.12,9.36-2.71a17.71,17.71,0,0,1,3.32-.78,19.4,19.4,0,0,1-3.17,1.23c-2.1.74-5.21,1.78-9.23,3.1-8,2.64-19.68,6.36-34.1,10.9C397.66,204.61,357.75,216.92,313.66,230.45Z" style="fill:#f5f5f5"></path><path d="M316,240.36l-117.15,17-35.48,5.33-9.63,1.52-2.5.43a4.78,4.78,0,0,0-.85.18,5,5,0,0,0,.86-.08l2.52-.33,9.66-1.37,35.48-5.31,117-18.08c45.65-7.09,87-13.45,117-17.87,15-2.22,27.12-4,35.52-5.1,4.19-.57,7.46-1,9.67-1.25a18,18,0,0,1,3.4-.27,17.43,17.43,0,0,1-3.32.74c-2.2.4-5.44,1-9.62,1.65-8.36,1.37-20.47,3.27-35.44,5.54C403.15,227.69,361.75,233.75,316,240.36Z" style="fill:#f5f5f5"></path><path d="M445.54,396.94c-5.53,11.52-21.8,16-35.45,9.49S390.7,385,396.22,373.48s18.43-11.17,32.08-4.62c11.37,5.45,19.58,12.34,18.64,21.59A21.14,21.14,0,0,1,445.54,396.94Z" style="fill:#e0e0e0"></path><ellipse cx="422.19" cy="382.51" rx="16.12" ry="26.51" transform="translate(-105.24 597.86) rotate(-64.39)" style="fill:#ebebeb"></ellipse><path d="M446.53,393.14c-.67.2-1.78-2.78-5.64-5.66a22.76,22.76,0,0,0-7.32-3.75,17.56,17.56,0,0,0-4.66-.73c-1.71-.05-3.56.05-5.56.11-1,0-2,.05-3,0s-2.05-.14-3-.25a33.37,33.37,0,0,1-5.55-1.25,28.08,28.08,0,0,1-4.75-2c-.72-.36-1.38-.79-2-1.17s-1.23-.82-1.75-1.27a16.32,16.32,0,0,1-4.28-4.89,6.2,6.2,0,0,1-.65-1.64c-.09-.41-.07-.66.07-.74.61-.36,2.45,2.24,6.67,4.59a34.17,34.17,0,0,0,18.18,4c1.93-.06,3.91-.14,5.91,0a19.63,19.63,0,0,1,5.79,1.2,21.78,21.78,0,0,1,8.15,5.36,14.18,14.18,0,0,1,3.44,5.58c.1.38.17.72.23,1a5.58,5.58,0,0,1,0,.77C446.77,392.87,446.68,393.1,446.53,393.14Z" style="fill:#e0e0e0"></path><path d="M436.47,380.5a12,12,0,0,1-1.45-.6,20.39,20.39,0,0,0-4.12-1,39.49,39.49,0,0,0-6.32-.28c-2.39,0-5,.2-7.8.06a21.63,21.63,0,0,1-4-.59,22.8,22.8,0,0,1-3.58-1.24,35.31,35.31,0,0,1-5.56-3.13c-1.51-1-2.68-1.9-3.48-2.52l-.92-.72a1.92,1.92,0,0,1-.3-.27,1.61,1.61,0,0,1,.35.2l1,.66c.83.57,2,1.42,3.55,2.4a37.76,37.76,0,0,0,5.55,3,22.37,22.37,0,0,0,3.52,1.19,21.75,21.75,0,0,0,3.94.57c2.75.14,5.38,0,7.77,0a37.07,37.07,0,0,1,6.37.38,18.24,18.24,0,0,1,4.14,1.19c.46.21.81.41,1,.53A1.37,1.37,0,0,1,436.47,380.5Z" style="fill:#ebebeb"></path><path d="M445.27,391.93a6.44,6.44,0,0,1-.8-.81c-.5-.53-1.24-1.28-2.22-2.14a24.42,24.42,0,0,0-8.78-4.93c-3.8-1.16-7.47-.72-10.07-.73a21.93,21.93,0,0,1-3.11-.13c-.37,0-.65-.11-.84-.14s-.28-.07-.28-.09a10.29,10.29,0,0,1,1.13.06,28.38,28.38,0,0,0,3.09,0c1.3,0,2.86-.16,4.6-.16a19.33,19.33,0,0,1,5.61.78,23.21,23.21,0,0,1,11,7.37A5,5,0,0,1,445.27,391.93Z" style="fill:#ebebeb"></path><path d="M443.07,397.68a2.56,2.56,0,0,1-.41.35,12.48,12.48,0,0,1-1.29.83,19.51,19.51,0,0,1-5.29,1.91,30.26,30.26,0,0,1-13.22-.45,42.87,42.87,0,0,1-5-1.8,44.73,44.73,0,0,1-15.15-10.58,23,23,0,0,1-3.28-4.58,12,12,0,0,1-.64-1.39,2.44,2.44,0,0,1-.19-.5s.33.66,1,1.81a25.17,25.17,0,0,0,3.35,4.46A46,46,0,0,0,418,398.12a30.25,30.25,0,0,0,18,2.35,20.76,20.76,0,0,0,5.28-1.76C442.47,398.1,443.05,397.65,443.07,397.68Z" style="fill:#fafafa"></path><g style="opacity:0.2"><path d="M439.56,379.12a1.19,1.19,0,0,0-.29-.76,29.76,29.76,0,0,0-17.64-11.88c-5.91-1.34-12.73-1.6-17.87,1-1.75.87-1.8,2.8-.21,3.93,3.22,2.29,8.18,5.26,12.32,5.71,4.6.51,9.24-.93,13.85-.5a17.64,17.64,0,0,1,7.78,2.67,2.67,2.67,0,0,0,1.13.5A.82.82,0,0,0,439.56,379.12Z" style="fill:#fff"></path></g><path d="M103.43,402.72c5.13,8.25,1.38,20.53-8.4,26.6S73.37,433,68.24,424.75s.37-16.38,10.14-22.46c8.15-5.06,15.92-7.51,21.47-3.12A15.63,15.63,0,0,1,103.43,402.72Z" style="fill:#e0e0e0"></path><ellipse cx="84.64" cy="411.79" rx="20.16" ry="12.26" transform="translate(-204.69 106.79) rotate(-31.87)" style="fill:#ebebeb"></ellipse><path d="M101.4,400.53c-.14.51-2.51,0-5.93,1.3a17.67,17.67,0,0,0-5.4,3.16,13.07,13.07,0,0,0-2.37,2.7c-.73,1.07-1.42,2.29-2.2,3.6-.38.65-.79,1.31-1.23,1.95a22,22,0,0,1-1.39,1.83,24.52,24.52,0,0,1-3.07,3.05,20.45,20.45,0,0,1-3.2,2.24c-.53.32-1.07.56-1.58.82s-1,.45-1.53.6a12.47,12.47,0,0,1-4.88.75,4.41,4.41,0,0,1-1.32-.26c-.3-.11-.45-.22-.44-.34,0-.54,2.43-.66,5.66-2.41a25.94,25.94,0,0,0,10-10c.75-1.26,1.5-2.57,2.4-3.8a15.25,15.25,0,0,1,3.14-3.22,16.57,16.57,0,0,1,6.77-3,10.75,10.75,0,0,1,5,.08c.28.09.53.17.74.26a2.89,2.89,0,0,1,.51.29C101.32,400.27,101.44,400.41,101.4,400.53Z" style="fill:#e0e0e0"></path><path d="M89.19,401.81a9,9,0,0,1-1,.69,15.43,15.43,0,0,0-2.35,2.22,28.8,28.8,0,0,0-2.76,3.93c-1,1.55-1.93,3.3-3.15,5a17,17,0,0,1-2,2.33,17.37,17.37,0,0,1-2.26,1.79,28.14,28.14,0,0,1-4.28,2.29c-1.26.55-2.31.94-3,1.2l-.84.29a.87.87,0,0,1-.3.08,1.13,1.13,0,0,1,.28-.14l.81-.35c.71-.3,1.74-.72,3-1.29a29.1,29.1,0,0,0,4.2-2.33,17,17,0,0,0,2.21-1.77,15.87,15.87,0,0,0,2-2.3c1.21-1.69,2.19-3.44,3.16-5a27.67,27.67,0,0,1,2.85-3.93,13.6,13.6,0,0,1,2.45-2.16c.32-.21.59-.35.77-.45A1,1,0,0,1,89.19,401.81Z" style="fill:#ebebeb"></path><path d="M100.11,400.84a4.67,4.67,0,0,1-.85.19c-.54.1-1.33.27-2.28.54a18.66,18.66,0,0,0-6.74,3.61c-2.3,2-3.52,4.51-4.58,6.17a16.76,16.76,0,0,1-1.36,1.93,4.84,4.84,0,0,1-.43.48c-.11.11-.16.16-.17.15a5.44,5.44,0,0,1,.5-.7c.33-.45.76-1.12,1.26-2s1.06-1.9,1.78-3A14.5,14.5,0,0,1,90,404.94a17.67,17.67,0,0,1,6.89-3.59,18.88,18.88,0,0,1,2.32-.45A3.79,3.79,0,0,1,100.11,400.84Z" style="fill:#ebebeb"></path><path d="M102.9,404.6a1.87,1.87,0,0,1,0,.4,8.57,8.57,0,0,1,0,1.17,14.62,14.62,0,0,1-.94,4.18,21.33,21.33,0,0,1-3.15,5.51,21.75,21.75,0,0,1-2.54,2.78,32,32,0,0,1-3.19,2.46,33.87,33.87,0,0,1-13,5.39,17.25,17.25,0,0,1-4.27.23,10.35,10.35,0,0,1-1.15-.15,2.09,2.09,0,0,1-.4-.09s.56.06,1.56.11a19,19,0,0,0,4.23-.32A35,35,0,0,0,93,420.83a23,23,0,0,0,8.86-10.57,15.76,15.76,0,0,0,1-4.1C102.92,405.16,102.87,404.6,102.9,404.6Z" style="fill:#fafafa"></path><g style="opacity:0.2"><path d="M89.57,399.27a1,1,0,0,0-.61-.13,22.65,22.65,0,0,0-14.83,6.46c-3.27,3.24-6.22,7.51-6.68,11.85a1.65,1.65,0,0,0,2.43,1.74c2.78-1.13,6.72-3.1,8.7-5.57,2.2-2.74,3.18-6.3,5.34-9.08a13.43,13.43,0,0,1,4.88-3.9,1.92,1.92,0,0,0,.79-.52A.63.63,0,0,0,89.57,399.27Z" style="fill:#fff"></path></g><path d="M76.51,363.19c0,7.2-7.07,13.51-15.6,13.57s-15.11-6.05-15.17-13.25,6.57-10.21,15.1-10.27c7.11-.06,13,1.4,14.78,6.32A11.93,11.93,0,0,1,76.51,363.19Z" style="fill:#e0e0e0"></path><ellipse cx="61.12" cy="361.66" rx="14.94" ry="9.08" transform="translate(-2.61 0.45) rotate(-0.41)" style="fill:#ebebeb"></ellipse><path d="M76.08,361c-.3.27-1.59-1-4.26-1.47a12.87,12.87,0,0,0-4.63-.09,9.4,9.4,0,0,0-2.54.79c-.88.39-1.79.9-2.79,1.43-.5.26-1,.52-1.53.75s-1.07.44-1.59.62a18.75,18.75,0,0,1-3.12.74,16.13,16.13,0,0,1-2.89.18c-.45,0-.89-.06-1.31-.1s-.83-.11-1.21-.2a9.15,9.15,0,0,1-3.36-1.42,3.16,3.16,0,0,1-.74-.67q-.22-.29-.15-.39c.22-.34,1.79.53,4.51.67a19.16,19.16,0,0,0,10.19-2.47c1-.5,2-1,3-1.46a11.23,11.23,0,0,1,3.23-.83,12.26,12.26,0,0,1,5.45.7,7.94,7.94,0,0,1,3.12,2,5.76,5.76,0,0,1,.37.45,3.05,3.05,0,0,1,.21.38C76.13,360.83,76.14,361,76.08,361Z" style="fill:#e0e0e0"></path><path d="M67.86,357.11a7.47,7.47,0,0,1-.89.06,10.86,10.86,0,0,0-2.34.49,20.91,20.91,0,0,0-3.27,1.42c-1.2.61-2.49,1.34-3.93,1.95a12.53,12.53,0,0,1-2.18.7,12.39,12.39,0,0,1-2.12.26,20.45,20.45,0,0,1-3.59-.21c-1-.14-1.82-.3-2.38-.42l-.65-.13-.22-.07a.8.8,0,0,1,.23,0l.65.09c.57.09,1.38.22,2.39.34a20.72,20.72,0,0,0,3.56.15,11.49,11.49,0,0,0,4.21-.95c1.43-.6,2.72-1.33,3.93-1.93a20.49,20.49,0,0,1,3.32-1.39,10.44,10.44,0,0,1,2.39-.42l.66,0A.6.6,0,0,1,67.86,357.11Z" style="fill:#ebebeb"></path><path d="M75.13,360.72a4,4,0,0,1-.6-.21c-.38-.15-1-.34-1.65-.54a13.85,13.85,0,0,0-5.66-.32,17.8,17.8,0,0,0-5.28,2.12,13.31,13.31,0,0,1-1.61.7l-.46.14-.16,0a4.51,4.51,0,0,1,.59-.25,16,16,0,0,0,1.56-.76c.64-.35,1.4-.79,2.29-1.22a10.79,10.79,0,0,1,3-1,13.29,13.29,0,0,1,7.39,1A2.69,2.69,0,0,1,75.13,360.72Z" style="fill:#ebebeb"></path><path d="M75.45,364.18l-.13.27a5.33,5.33,0,0,1-.44.74,10.82,10.82,0,0,1-2.21,2.28,15.79,15.79,0,0,1-4.13,2.26,16.3,16.3,0,0,1-2.67.78,23.64,23.64,0,0,1-3,.32,25.14,25.14,0,0,1-10.28-1.61,13.11,13.11,0,0,1-2.79-1.51,6.57,6.57,0,0,1-.67-.54c-.15-.13-.23-.2-.22-.21s.33.25.94.67a13.4,13.4,0,0,0,2.8,1.43,25.87,25.87,0,0,0,10.21,1.53,17,17,0,0,0,9.68-3.26,11.66,11.66,0,0,0,2.24-2.19C75.24,364.54,75.43,364.16,75.45,364.18Z" style="fill:#fafafa"></path><g style="opacity:0.2"><path d="M69.08,355.65a.63.63,0,0,0-.33-.31,16.75,16.75,0,0,0-11.87-1.66c-3.33.78-6.84,2.34-8.81,4.9a1.23,1.23,0,0,0,.87,2.05c2.19.36,5.44.63,7.64-.16,2.46-.88,4.45-2.75,6.89-3.67a10,10,0,0,1,4.6-.58,1.46,1.46,0,0,0,.69,0A.48.48,0,0,0,69.08,355.65Z" style="fill:#fff"></path></g><path d="M330.05,441c.05,7.2-7.07,13.5-15.6,13.57s-15.11-6.06-15.17-13.26,6.57-10.21,15.1-10.27c7.11-.05,13,1.41,14.78,6.33A11.93,11.93,0,0,1,330.05,441Z" style="fill:#e0e0e0"></path><path d="M329.6,439.39c0,5-6.62,9.13-14.87,9.19s-15-4-15-9,6.62-9.13,14.87-9.19S329.56,434.37,329.6,439.39Z" style="fill:#ebebeb"></path><path d="M329.62,438.86c-.3.26-1.6-1-4.26-1.47a13.09,13.09,0,0,0-4.63-.1,10.17,10.17,0,0,0-2.54.79c-.88.4-1.79.91-2.79,1.43-.5.26-1,.52-1.53.76s-1.07.44-1.59.62a18.75,18.75,0,0,1-3.12.74,15.22,15.22,0,0,1-2.89.17c-.45,0-.9-.05-1.32-.09s-.82-.11-1.2-.21a9.13,9.13,0,0,1-3.37-1.41,3.64,3.64,0,0,1-.74-.68c-.14-.18-.19-.31-.14-.38.22-.34,1.79.52,4.51.67a19.35,19.35,0,0,0,10.19-2.47c1-.51,1.95-1,3-1.47a10.82,10.82,0,0,1,3.23-.82,12.26,12.26,0,0,1,5.45.7,8.05,8.05,0,0,1,3.12,2,5.74,5.74,0,0,1,.37.46,3.05,3.05,0,0,1,.21.38C329.67,438.66,329.68,438.8,329.62,438.86Z" style="fill:#e0e0e0"></path><path d="M321.39,435s-.31,0-.88.05a11.52,11.52,0,0,0-2.34.49,23,23,0,0,0-3.27,1.42c-1.2.61-2.49,1.35-3.93,2a12.36,12.36,0,0,1-2.19.7,13.16,13.16,0,0,1-2.11.25,19.53,19.53,0,0,1-3.59-.21c-1-.14-1.83-.3-2.39-.41l-.64-.14-.22-.06h.23l.65.1c.57.08,1.38.22,2.39.33a20.63,20.63,0,0,0,3.56.16,12.85,12.85,0,0,0,2.08-.26,12.57,12.57,0,0,0,2.13-.69c1.43-.61,2.72-1.33,3.93-1.94a21.29,21.29,0,0,1,3.32-1.38,9.83,9.83,0,0,1,2.39-.42c.28,0,.51,0,.66,0S321.39,434.94,321.39,435Z" style="fill:#ebebeb"></path><path d="M328.67,438.56a5.38,5.38,0,0,1-.6-.22c-.39-.14-.95-.34-1.65-.53a13.84,13.84,0,0,0-5.66-.33,18,18,0,0,0-5.29,2.13,13.3,13.3,0,0,1-1.6.7c-.2.07-.35.1-.46.13l-.16,0a4.69,4.69,0,0,1,.58-.25,14.92,14.92,0,0,0,1.57-.76c.64-.35,1.4-.79,2.28-1.22a11,11,0,0,1,3-1,13.06,13.06,0,0,1,5.74.4,11.08,11.08,0,0,1,1.64.61A2.18,2.18,0,0,1,328.67,438.56Z" style="fill:#ebebeb"></path><path d="M329,442a2.48,2.48,0,0,1-.13.28,7.63,7.63,0,0,1-.44.74,11.06,11.06,0,0,1-2.21,2.27,16,16,0,0,1-4.13,2.27,16.3,16.3,0,0,1-2.67.77,22.09,22.09,0,0,1-3,.32,25.16,25.16,0,0,1-10.28-1.6,13.11,13.11,0,0,1-2.79-1.51,6.37,6.37,0,0,1-.67-.55l-.22-.2s.33.25.94.67a13.9,13.9,0,0,0,2.8,1.43,25.89,25.89,0,0,0,10.21,1.52,17,17,0,0,0,9.68-3.25,11.66,11.66,0,0,0,2.24-2.2C328.78,442.37,329,442,329,442Z" style="fill:#fafafa"></path><g style="opacity:0.2"><path d="M322.62,433.48a.69.69,0,0,0-.34-.31,16.79,16.79,0,0,0-11.87-1.66c-3.32.79-6.83,2.34-8.8,4.91a1.22,1.22,0,0,0,.86,2c2.2.36,5.44.64,7.65-.15,2.45-.88,4.45-2.76,6.89-3.68a9.85,9.85,0,0,1,4.59-.57,1.5,1.5,0,0,0,.7,0A.47.47,0,0,0,322.62,433.48Z" style="fill:#fff"></path></g><path d="M469.6,133.9c0,7.2-7.07,13.51-15.6,13.57s-15.12-6.05-15.17-13.25S445.4,124,453.93,124c7.11,0,13,1.41,14.77,6.32A11.73,11.73,0,0,1,469.6,133.9Z" style="fill:#e0e0e0"></path><path d="M469.15,132.26c0,5-6.62,9.13-14.87,9.19s-15-4-15-9,6.63-9.13,14.87-9.19S469.11,127.25,469.15,132.26Z" style="fill:#ebebeb"></path><path d="M469.16,131.74c-.29.26-1.59-1-4.25-1.48a13.11,13.11,0,0,0-4.63-.09,10.37,10.37,0,0,0-2.55.79c-.87.39-1.78.9-2.78,1.43-.5.26-1,.52-1.53.76s-1.07.43-1.59.62a18.75,18.75,0,0,1-3.12.74,16.09,16.09,0,0,1-2.89.17c-.46,0-.9-.06-1.32-.09s-.82-.11-1.2-.21a9.12,9.12,0,0,1-3.37-1.42,3.64,3.64,0,0,1-.74-.67c-.14-.18-.19-.31-.14-.39.21-.33,1.79.53,4.51.67a19.23,19.23,0,0,0,10.19-2.46c1-.51,1.95-1,3-1.47a10.82,10.82,0,0,1,3.23-.82,12.29,12.29,0,0,1,5.45.69,7.94,7.94,0,0,1,3.12,2l.37.45c.09.15.16.28.21.38S469.23,131.68,469.16,131.74Z" style="fill:#e0e0e0"></path><path d="M460.94,127.82a6.9,6.9,0,0,1-.88.06,11.52,11.52,0,0,0-2.34.49,23,23,0,0,0-3.27,1.42c-1.2.61-2.49,1.34-3.94,2a12,12,0,0,1-2.18.69,12.27,12.27,0,0,1-2.11.26,19.53,19.53,0,0,1-3.59-.21c-1-.14-1.83-.3-2.39-.41l-.64-.14c-.15,0-.22-.06-.22-.07l.23,0,.65.1c.56.08,1.38.21,2.39.33a21.69,21.69,0,0,0,3.56.16,12.92,12.92,0,0,0,2.07-.27,12.62,12.62,0,0,0,2.14-.68c1.42-.61,2.72-1.34,3.93-1.94a21.29,21.29,0,0,1,3.32-1.38,9.85,9.85,0,0,1,2.38-.42c.29,0,.51,0,.66,0Z" style="fill:#ebebeb"></path><path d="M468.22,131.43a2.73,2.73,0,0,1-.6-.21c-.39-.14-.95-.34-1.66-.53a13.64,13.64,0,0,0-5.66-.33,17.91,17.91,0,0,0-5.28,2.13,11.56,11.56,0,0,1-1.6.69,4,4,0,0,1-.46.14.65.65,0,0,1-.17,0,3.75,3.75,0,0,1,.59-.25c.38-.16.92-.42,1.56-.77s1.41-.79,2.29-1.21a11,11,0,0,1,3-1,13.22,13.22,0,0,1,5.74.4,12.14,12.14,0,0,1,1.64.62A3,3,0,0,1,468.22,131.43Z" style="fill:#ebebeb"></path><path d="M468.53,134.89a1,1,0,0,1-.12.27,5.62,5.62,0,0,1-.45.74,10.73,10.73,0,0,1-2.2,2.28,16,16,0,0,1-4.13,2.27,16.13,16.13,0,0,1-2.68.77,23.48,23.48,0,0,1-3,.32,25,25,0,0,1-10.29-1.61,12.33,12.33,0,0,1-2.78-1.51,5.43,5.43,0,0,1-.67-.54c-.15-.13-.23-.2-.22-.21s.33.26.94.68a14.45,14.45,0,0,0,2.8,1.43A25.89,25.89,0,0,0,456,141.3a17.07,17.07,0,0,0,9.68-3.25,12,12,0,0,0,2.24-2.2C468.33,135.25,468.51,134.88,468.53,134.89Z" style="fill:#fafafa"></path><g style="opacity:0.2"><path d="M462.17,126.36a.65.65,0,0,0-.34-.31A16.79,16.79,0,0,0,450,124.39c-3.32.78-6.84,2.34-8.81,4.91a1.22,1.22,0,0,0,.87,2c2.2.36,5.44.64,7.65-.16,2.45-.88,4.45-2.75,6.89-3.67a10,10,0,0,1,4.59-.58,1.5,1.5,0,0,0,.7,0A.47.47,0,0,0,462.17,126.36Z" style="fill:#fff"></path></g><path d="M427.45,91.8c-7.5,8.06-22.05,7.61-31.61-1.27s-10.46-22.61-3-30.67,18-4.47,27.58,4.41c8,7.4,13,15.18,9.8,22.55A18.3,18.3,0,0,1,427.45,91.8Z" style="fill:#e0e0e0"></path><ellipse cx="411.93" cy="73.94" rx="13.89" ry="22.85" transform="translate(77.31 325.31) rotate(-47.09)" style="fill:#ebebeb"></ellipse><path d="M429.24,88.93c-.6,0-.76-2.75-3.19-6.1a19.8,19.8,0,0,0-5.06-5,15,15,0,0,0-3.66-1.79c-1.39-.48-2.94-.87-4.59-1.33-.83-.23-1.67-.48-2.5-.77a24.94,24.94,0,0,1-2.42-1,27.63,27.63,0,0,1-4.25-2.45,23.67,23.67,0,0,1-3.4-2.84c-.51-.48-.94-1-1.37-1.48s-.8-1-1.12-1.5a14,14,0,0,1-2.26-5.11,5.18,5.18,0,0,1-.12-1.52c0-.36.12-.55.25-.59.59-.14,1.44,2.47,4.32,5.49a29.48,29.48,0,0,0,13.93,7.95c1.6.44,3.25.88,4.86,1.5a16.67,16.67,0,0,1,4.46,2.48,18.76,18.76,0,0,1,5.34,6.5,12.31,12.31,0,0,1,1.39,5.47c0,.33,0,.63-.06.89a4.81,4.81,0,0,1-.17.64C429.5,88.76,429.37,88.93,429.24,88.93Z" style="fill:#e0e0e0"></path><path d="M424.2,75.94a10,10,0,0,1-1-.86A17.61,17.61,0,0,0,420,73.17a33.14,33.14,0,0,0-5.12-1.85c-2-.58-4.19-1.12-6.44-1.95a19.2,19.2,0,0,1-3.16-1.52,18.3,18.3,0,0,1-2.62-1.93,30.78,30.78,0,0,1-3.77-4c-1-1.22-1.72-2.24-2.22-3l-.57-.82a1.27,1.27,0,0,1-.18-.31s.09.08.24.26l.62.79c.54.68,1.31,1.69,2.31,2.88a32.35,32.35,0,0,0,3.79,3.91,19.79,19.79,0,0,0,2.59,1.88A18.85,18.85,0,0,0,408.6,69c2.22.82,4.43,1.37,6.4,2a31.78,31.78,0,0,1,5.15,1.94,16.36,16.36,0,0,1,3.1,2c.32.29.56.55.72.71A1.42,1.42,0,0,1,424.2,75.94Z" style="fill:#ebebeb"></path><path d="M428.51,87.6a4.64,4.64,0,0,1-.45-.87c-.28-.56-.69-1.37-1.28-2.33a21,21,0,0,0-6-6.3c-2.82-1.93-6-2.51-8.1-3.18a18.85,18.85,0,0,1-2.53-.91,6.26,6.26,0,0,1-.65-.33.87.87,0,0,1-.21-.14,6.74,6.74,0,0,1,.92.34,24.56,24.56,0,0,0,2.54.79c1.08.29,2.39.6,3.82,1A16.45,16.45,0,0,1,421,77.79a20.13,20.13,0,0,1,6,6.48,19.9,19.9,0,0,1,1.19,2.4A4.34,4.34,0,0,1,428.51,87.6Z" style="fill:#ebebeb"></path><path d="M425.23,91.78a2.37,2.37,0,0,1-.43.17,9.93,9.93,0,0,1-1.27.36,16.83,16.83,0,0,1-4.85.21,24.36,24.36,0,0,1-7-1.8,25.35,25.35,0,0,1-3.8-2A35.36,35.36,0,0,1,404.28,86a38.35,38.35,0,0,1-9.76-12.58A19.56,19.56,0,0,1,393,68.81a10.6,10.6,0,0,1-.18-1.31,1.46,1.46,0,0,1,0-.46s.1.63.34,1.74a21.5,21.5,0,0,0,1.61,4.53,39.69,39.69,0,0,0,9.77,12.41,26.12,26.12,0,0,0,14.19,6.55,18,18,0,0,0,4.79-.1C424.62,92,425.22,91.74,425.23,91.78Z" style="fill:#fafafa"></path><g style="opacity:0.2"><path d="M427.1,75.6a1.06,1.06,0,0,0-.05-.7,25.64,25.64,0,0,0-11.47-14.3C411.06,58,405.51,56,400.63,56.82A1.87,1.87,0,0,0,399.45,60c2.06,2.7,5.39,6.42,8.67,7.85,3.66,1.6,7.85,1.61,11.53,3.14a15.19,15.19,0,0,1,5.71,4.19,2.43,2.43,0,0,0,.8.7A.73.73,0,0,0,427.1,75.6Z" style="fill:#fff"></path></g><path d="M113,63.78c3.17,8.53-2.57,19.11-12.69,22.87S79.75,86,76.58,77.44s3.4-15,13.51-18.73c8.43-3.13,16-3.93,20.3,1.14A14.76,14.76,0,0,1,113,63.78Z" style="fill:#e0e0e0"></path><ellipse cx="94.06" cy="68.6" rx="18.89" ry="11.49" transform="translate(-18 37.04) rotate(-20.37)" style="fill:#ebebeb"></ellipse><path d="M111.57,61.39c-.23.44-2.31-.47-5.7.08a16.76,16.76,0,0,0-5.55,1.89,12.77,12.77,0,0,0-2.68,2c-.87.85-1.73,1.85-2.69,2.9-.48.53-1,1-1.49,1.56a21.38,21.38,0,0,1-1.63,1.43,23.91,23.91,0,0,1-3.38,2.22A19.42,19.42,0,0,1,85.08,75c-.54.19-1.09.32-1.6.46s-1,.22-1.52.27a11.69,11.69,0,0,1-4.62-.23A4.53,4.53,0,0,1,76.17,75c-.25-.16-.36-.29-.34-.4.11-.49,2.36-.15,5.66-1.15A24.39,24.39,0,0,0,92.54,66.1c.92-1,1.86-2.07,2.92-3a14.25,14.25,0,0,1,3.48-2.38,15.69,15.69,0,0,1,6.79-1.52,10.09,10.09,0,0,1,4.56,1c.24.13.45.26.63.38a2.56,2.56,0,0,1,.41.36C111.54,61.13,111.62,61.29,111.57,61.39Z" style="fill:#e0e0e0"></path><path d="M100.1,60.28a7.65,7.65,0,0,1-1,.45,14.78,14.78,0,0,0-2.58,1.6,28.35,28.35,0,0,0-3.27,3.1c-1.16,1.24-2.38,2.67-3.83,4a14.79,14.79,0,0,1-4.7,3,25.49,25.49,0,0,1-4.36,1.3c-1.26.27-2.3.43-3,.54l-.82.11a.86.86,0,0,1-.3,0,1.09,1.09,0,0,1,.29-.08l.81-.17c.71-.14,1.73-.33,3-.63a26,26,0,0,0,4.3-1.35A16.49,16.49,0,0,0,87,71a15.71,15.71,0,0,0,2.24-1.74c1.43-1.34,2.66-2.76,3.84-4a26.51,26.51,0,0,1,3.34-3.07A13.54,13.54,0,0,1,99,60.62c.34-.13.61-.21.79-.27Z" style="fill:#ebebeb"></path><path d="M110.32,61.43a3.64,3.64,0,0,1-.81,0c-.52,0-1.28,0-2.2.08a17.42,17.42,0,0,0-6.87,2.06C98,65,96.37,67.05,95.08,68.38a15.74,15.74,0,0,1-1.61,1.53,4.8,4.8,0,0,1-.49.36c-.11.07-.17.11-.18.1a5.32,5.32,0,0,1,.59-.55c.39-.35.91-.89,1.53-1.58s1.33-1.55,2.19-2.44a13.78,13.78,0,0,1,3.18-2.49,16.46,16.46,0,0,1,7-2,15.42,15.42,0,0,1,2.21,0A5.06,5.06,0,0,1,110.32,61.43Z" style="fill:#ebebeb"></path><path d="M112.18,65.41a1.81,1.81,0,0,1,0,.38,8.09,8.09,0,0,1-.21,1.07,13.57,13.57,0,0,1-1.64,3.66A20.11,20.11,0,0,1,106.37,75a20.87,20.87,0,0,1-2.85,2.07,29.67,29.67,0,0,1-3.39,1.67A32,32,0,0,1,87.2,81.27a15.67,15.67,0,0,1-4-.6,7.21,7.21,0,0,1-1-.35,2.19,2.19,0,0,1-.35-.15s.51.16,1.42.39a17.53,17.53,0,0,0,3.94.49A32.82,32.82,0,0,0,100,78.46a21.6,21.6,0,0,0,10.11-8,15.19,15.19,0,0,0,1.71-3.58C112.1,65.93,112.15,65.4,112.18,65.41Z" style="fill:#fafafa"></path><g style="opacity:0.2"><path d="M100.93,58a.86.86,0,0,0-.54-.23A21.15,21.15,0,0,0,85.57,61c-3.61,2.36-7.12,5.73-8.36,9.63a1.55,1.55,0,0,0,1.92,2c2.76-.51,6.74-1.59,9-3.48,2.54-2.11,4.1-5.2,6.6-7.35A12.59,12.59,0,0,1,100,59.14a2,2,0,0,0,.82-.33A.6.6,0,0,0,100.93,58Z" style="fill:#fff"></path></g></g><g id="freepik--coffee-beans--inject-78"><path d="M280.17,88c5.77,9.47,1.36,23.45-9.86,30.29s-24.78,4-30.55-5.49.59-18.7,11.81-25.54c9.35-5.7,18.25-8.42,24.54-3.35A18.12,18.12,0,0,1,280.17,88Z" style="fill:#6f4439"></path><ellipse cx="258.62" cy="98.13" rx="23.02" ry="13.99" transform="translate(-13.28 148.94) rotate(-31.36)" style="fill:#ae7461"></ellipse><path d="M277.88,85.44c-.25.73-2.91.32-6.68,1.85a20.38,20.38,0,0,0-6,3.57,14.79,14.79,0,0,0-2.59,3c-.82,1.19-1.61,2.57-2.51,4.06a30.23,30.23,0,0,1-3.1,4.36,28.92,28.92,0,0,1-3.62,3.5,23,23,0,0,1-7.46,4.09,13.42,13.42,0,0,1-5.72.63c-1.36-.18-2.05-.6-2-.94,0-.78,2.76-1.06,6.32-3.09a30.49,30.49,0,0,0,11.16-11.25,49.21,49.21,0,0,1,2.82-4.34,17.36,17.36,0,0,1,3.76-3.75,19,19,0,0,1,8-3.37,11.85,11.85,0,0,1,5.82.33,8.06,8.06,0,0,1,.85.36,3.84,3.84,0,0,1,.58.4Q278,85.17,277.88,85.44Z" style="fill:#6f4439"></path><g style="opacity:0.30000000000000004"><path d="M277.91,85.38c-.16,0-.14,0-.32,0a12.21,12.21,0,0,0-5.68-.14,17.16,17.16,0,0,0-3.78,1.14,19.9,19.9,0,0,0-4,2.26,17.08,17.08,0,0,0-3.61,3.64c-1,1.4-1.92,2.88-2.79,4.31a29.61,29.61,0,0,1-11.52,11.34,37.27,37.27,0,0,1-6.07,2.31l.32,0a14.17,14.17,0,0,0,5.57-.8c.58-.17,1.15-.44,1.76-.68s1.21-.56,1.81-.92a24.12,24.12,0,0,0,3.68-2.52,29.31,29.31,0,0,0,3.53-3.45l.82-1c.27-.35.53-.71.79-1.07.5-.73,1-1.47,1.42-2.21.9-1.48,1.7-2.88,2.55-4.1a15.39,15.39,0,0,1,2.74-3.06,19.93,19.93,0,0,1,3.13-2.16,20.86,20.86,0,0,1,3.07-1.39,18.2,18.2,0,0,1,4.81-1c.29,0,.53-.08.77-.11s.44,0,.61-.06S277.83,85.48,277.91,85.38Z"></path></g><path d="M263.91,86.78a8.35,8.35,0,0,1-1.1.8,17.43,17.43,0,0,0-2.69,2.52,33.94,33.94,0,0,0-3.18,4.46c-1.09,1.76-2.22,3.75-3.64,5.72a18.12,18.12,0,0,1-5,4.67,30.08,30.08,0,0,1-4.93,2.56c-1.45.61-2.65,1-3.48,1.33a6,6,0,0,1-1.32.38,7.87,7.87,0,0,1,1.24-.57c.81-.35,2-.82,3.42-1.47a34.35,34.35,0,0,0,4.81-2.63,18.45,18.45,0,0,0,4.79-4.58c1.4-1.93,2.53-3.91,3.66-5.66a31.51,31.51,0,0,1,3.3-4.46,15.63,15.63,0,0,1,2.85-2.44A5.86,5.86,0,0,1,263.91,86.78Z" style="fill:#263238"></path><path d="M276.39,85.78c0,.1-1.39.23-3.56.86a21.48,21.48,0,0,0-7.71,4.06c-2.62,2.2-4,5.08-5.29,7a18.56,18.56,0,0,1-1.6,2.19,3.17,3.17,0,0,1-.71.69c-.06-.06.87-1.1,2-3.07s2.54-4.87,5.28-7.17a20.08,20.08,0,0,1,7.94-4,19.45,19.45,0,0,1,2.67-.47A3.58,3.58,0,0,1,276.39,85.78Z" style="fill:#263238"></path><path d="M279.54,90.1a1.59,1.59,0,0,1,.07.46,9.44,9.44,0,0,1,0,1.34,16.49,16.49,0,0,1-1.09,4.77,24.34,24.34,0,0,1-3.65,6.29,26,26,0,0,1-2.93,3.16,37.75,37.75,0,0,1-3.68,2.79,38.74,38.74,0,0,1-14.9,6,19.5,19.5,0,0,1-4.9.19,8.12,8.12,0,0,1-1.32-.2,2.12,2.12,0,0,1-.44-.11s.63,0,1.78.11a22.17,22.17,0,0,0,4.82-.35A40.06,40.06,0,0,0,268,108.47a26.35,26.35,0,0,0,10.21-11.93,18,18,0,0,0,1.23-4.66C279.54,90.74,279.49,90.1,279.54,90.1Z" style="fill:#263238"></path><g style="opacity:0.2"><path d="M264.37,83.88a1,1,0,0,0-.69-.15,25.83,25.83,0,0,0-17,7.22c-3.77,3.66-7.18,8.51-7.75,13.46a1.88,1.88,0,0,0,2.76,2c3.19-1.26,7.7-3.47,10-6.26,2.55-3.11,3.7-7.17,6.2-10.32a15.36,15.36,0,0,1,5.61-4.4,2.41,2.41,0,0,0,.91-.58A.73.73,0,0,0,264.37,83.88Z" style="fill:#fff"></path></g><g style="opacity:0.2"><path d="M250.34,111.79a1,1,0,0,0,.72.15,27,27,0,0,0,17.78-7.49c3.94-3.82,7.52-8.87,8.13-14a2,2,0,0,0-2.88-2.11c-3.33,1.31-8,3.6-10.45,6.52-2.66,3.24-3.88,7.48-6.49,10.76a16.07,16.07,0,0,1-5.88,4.58,2.39,2.39,0,0,0-.94.61A.75.75,0,0,0,250.34,111.79Z" style="fill:#fff"></path></g><path d="M276.47,92.24a5.59,5.59,0,0,1-.44,1.25,13.17,13.17,0,0,1-.64,1.42,19.76,19.76,0,0,1-1,1.83,32.25,32.25,0,0,1-3.07,4.42,36.71,36.71,0,0,1-4.68,4.64,37.26,37.26,0,0,1-5.5,3.64,32,32,0,0,1-4.95,2.1c-.72.26-1.4.41-2,.57a12.82,12.82,0,0,1-1.52.34,6.93,6.93,0,0,1-1.32.18c0-.11,1.85-.42,4.71-1.44a35.24,35.24,0,0,0,4.84-2.18A35.59,35.59,0,0,0,271,100.85a35.55,35.55,0,0,0,3.12-4.3C275.69,94,276.37,92.2,276.47,92.24Z" style="fill:#fff"></path><path d="M206.47,79.57c-6.2,9.21-20.75,11-31.65,3.68s-13.95-20.85-7.75-30,17.24-7.27,28.14.08c9.08,6.12,15.26,13.07,13.29,20.9A18.14,18.14,0,0,1,206.47,79.57Z" style="fill:#6f4439"></path><ellipse cx="188.24" cy="64.23" rx="13.99" ry="23.02" transform="translate(29.78 184.44) rotate(-56.03)" style="fill:#ae7461"></ellipse><path d="M207.81,76.44c-.77.09-1.51-2.51-4.47-5.3a20.59,20.59,0,0,0-5.73-3.92,15.18,15.18,0,0,0-3.78-1.12c-1.42-.25-3-.39-4.74-.59a29.64,29.64,0,0,1-5.25-1,28.06,28.06,0,0,1-4.69-1.83,22.85,22.85,0,0,1-6.83-5.07,13.51,13.51,0,0,1-3-4.93c-.4-1.31-.31-2.12,0-2.24.73-.29,2.12,2.07,5.45,4.46a30.56,30.56,0,0,0,14.89,5.44c1.65.19,3.38.38,5.12.75a17.65,17.65,0,0,1,5,1.86,18.85,18.85,0,0,1,6.4,5.86,11.92,11.92,0,0,1,2.13,5.43c0,.35,0,.66,0,.92a3.48,3.48,0,0,1-.12.69C208.13,76.22,208,76.42,207.81,76.44Z" style="fill:#6f4439"></path><g style="opacity:0.30000000000000004"><path d="M207.87,76.45c0-.17-.08-.12-.1-.31a12.34,12.34,0,0,0-2.25-5.22,17.93,17.93,0,0,0-2.61-3,19.39,19.39,0,0,0-3.71-2.67,17.12,17.12,0,0,0-4.82-1.76c-1.7-.36-3.42-.54-5.08-.73a29.68,29.68,0,0,1-15.11-5.74,36.11,36.11,0,0,1-4.63-4.56c0,.1.06.2.1.31a14.23,14.23,0,0,0,3.06,4.73c.39.45.87.85,1.34,1.31s1,.86,1.59,1.26a24.4,24.4,0,0,0,3.83,2.29,29.23,29.23,0,0,0,4.61,1.77l1.26.33c.43.1.87.19,1.3.27.87.15,1.74.26,2.61.37,1.72.19,3.32.34,4.78.6A15.37,15.37,0,0,1,198,67a20.14,20.14,0,0,1,3.28,2,19.55,19.55,0,0,1,2.54,2.21,18.07,18.07,0,0,1,2.94,3.94c.14.26.3.45.43.65a4.31,4.31,0,0,0,.31.54C207.61,76.47,207.75,76.42,207.87,76.45Z"></path></g><path d="M200.76,64.31a8.61,8.61,0,0,1-1.19-.67,17.29,17.29,0,0,0-3.41-1.39,33.12,33.12,0,0,0-5.38-1c-2.05-.27-4.34-.46-6.71-.93a18.2,18.2,0,0,1-6.32-2.55,30,30,0,0,1-4.38-3.41c-1.16-1.06-2.05-2-2.66-2.62a6.75,6.75,0,0,1-.9-1,8,8,0,0,1,1,.89c.65.59,1.58,1.46,2.76,2.49A33.83,33.83,0,0,0,178,57.34a18.29,18.29,0,0,0,6.17,2.45c2.33.46,4.61.67,6.67,1a30.92,30.92,0,0,1,5.43,1.15,15.71,15.71,0,0,1,3.41,1.56A6.05,6.05,0,0,1,200.76,64.31Z" style="fill:#263238"></path><path d="M206.87,75.24c-.08.05-.79-1.18-2.26-2.88a21.38,21.38,0,0,0-6.9-5.31c-3.1-1.47-6.31-1.56-8.54-1.91a18.44,18.44,0,0,1-2.66-.54,2.93,2.93,0,0,1-.92-.36c0-.08,1.36.34,3.62.53s5.49.28,8.72,1.81a19.91,19.91,0,0,1,7,5.54,17.68,17.68,0,0,1,1.54,2.23A3.25,3.25,0,0,1,206.87,75.24Z" style="fill:#263238"></path><path d="M204.26,79.9s-.12.1-.39.26a9.16,9.16,0,0,1-1.21.56,16.52,16.52,0,0,1-4.79,1,24.49,24.49,0,0,1-7.24-.69,24.75,24.75,0,0,1-4.09-1.35,36.55,36.55,0,0,1-4.07-2.18,38.66,38.66,0,0,1-11.69-11,19.75,19.75,0,0,1-2.21-4.37,10.42,10.42,0,0,1-.37-1.28,1.44,1.44,0,0,1-.08-.46s.22.61.64,1.67a21.62,21.62,0,0,0,2.33,4.23,40.09,40.09,0,0,0,11.65,10.8,26.42,26.42,0,0,0,15.11,4.3,18.2,18.2,0,0,0,4.75-.83C203.68,80.17,204.24,79.86,204.26,79.9Z" style="fill:#263238"></path><g style="opacity:0.2"><path d="M203.59,63.52a1,1,0,0,0-.16-.69,25.76,25.76,0,0,0-13.65-12.44c-4.9-1.9-10.73-3-15.47-1.43a1.88,1.88,0,0,0-.67,3.35c2.47,2.37,6.36,5.55,9.86,6.46,3.88,1,8.05.37,12,1.32a15.32,15.32,0,0,1,6.34,3.27,2.25,2.25,0,0,0,.91.58A.73.73,0,0,0,203.59,63.52Z" style="fill:#fff"></path></g><g style="opacity:0.2"><path d="M172.37,62.41a1,1,0,0,0,.16.72,27,27,0,0,0,14.23,13c5.11,2,11.2,3.14,16.15,1.53a2,2,0,0,0,.71-3.5c-2.58-2.48-6.63-5.81-10.28-6.77-4.06-1.07-8.41-.4-12.49-1.41a16,16,0,0,1-6.61-3.43,2.42,2.42,0,0,0-1-.61A.76.76,0,0,0,172.37,62.41Z" style="fill:#fff"></path></g><path d="M201,78a5.89,5.89,0,0,1-1.32.12,12.94,12.94,0,0,1-1.56,0c-.61,0-1.3,0-2.07-.12a32.4,32.4,0,0,1-5.29-1A33.63,33.63,0,0,1,179,71.27a32.63,32.63,0,0,1-4-3.62c-.54-.55-1-1.1-1.35-1.57a12,12,0,0,1-.94-1.24,6,6,0,0,1-.71-1.12c.08-.07,1.14,1.5,3.26,3.67a35.56,35.56,0,0,0,4,3.5,39.14,39.14,0,0,0,5.54,3.4,38.31,38.31,0,0,0,6.06,2.32,36.19,36.19,0,0,0,5.21,1C199.15,78,201,77.9,201,78Z" style="fill:#fff"></path><path d="M335.31,61.45C333,69.24,323.26,73.73,314,71s-14.34-11.48-12-19.28,10.43-8.88,19.66-6.15c7.7,2.26,13.55,5.76,13.9,11.66A13.16,13.16,0,0,1,335.31,61.45Z" style="fill:#6f4439"></path><ellipse cx="319.2" cy="54.76" rx="10.25" ry="16.85" transform="translate(176.4 345.45) rotate(-73.57)" style="fill:#ae7461"></ellipse><path d="M335.55,59c-.36.17-1.33-1.62-4.05-3.07a14.55,14.55,0,0,0-5-1.67c-1.91-.31-4,.14-6.53.65a22.16,22.16,0,0,1-3.8.46,19.82,19.82,0,0,1-3.58-.21,16.87,16.87,0,0,1-5.78-1.86,10.69,10.69,0,0,1-3.18-2.58c-.6-.76-.77-1.29-.65-1.39.31-.27,1.71,1.22,4.61,2.3a21.64,21.64,0,0,0,11.89.72c1.2-.23,2.44-.49,3.69-.61a12.11,12.11,0,0,1,3.72.16,14,14,0,0,1,5.63,2.48,9.27,9.27,0,0,1,2.73,3.1C335.68,58.33,335.69,58.91,335.55,59Z" style="fill:#6f4439"></path><g style="opacity:0.30000000000000004"><path d="M335.6,59c-.05-.11-.08-.06-.14-.19a9,9,0,0,0-2.72-3.15,12.53,12.53,0,0,0-2.48-1.49,14.13,14.13,0,0,0-3.18-1.05,12.64,12.64,0,0,0-3.75-.16,36.79,36.79,0,0,0-3.71.61,21.63,21.63,0,0,1-11.82-.68,26.7,26.7,0,0,1-4.24-2.15l.15.19a10.13,10.13,0,0,0,3.17,2.62c.38.23.8.41,1.23.62s.9.38,1.39.53a17.42,17.42,0,0,0,3.18.76,20.1,20.1,0,0,0,3.6.21l1,0,1-.1c.64-.09,1.27-.2,1.9-.32,1.24-.24,2.39-.49,3.47-.63a10.86,10.86,0,0,1,3,0,13.26,13.26,0,0,1,2.71.64,14.43,14.43,0,0,1,5.19,3.07c.15.15.31.25.44.37s.24.22.33.3S335.51,59,335.6,59Z"></path></g><path d="M328,52.05a18,18,0,0,0-3.66-.37,24.7,24.7,0,0,0-4,.49c-1.49.27-3.13.64-4.9.84a13.34,13.34,0,0,1-5-.39,22.84,22.84,0,0,1-3.82-1.43c-1-.5-1.86-.95-2.42-1.26a4,4,0,0,1-.85-.55c0-.08,1.32.56,3.42,1.47a16.93,16.93,0,0,0,8.61,1.64c1.72-.19,3.36-.55,4.86-.8a23.31,23.31,0,0,1,4.06-.38,10.78,10.78,0,0,1,2.73.37A3.24,3.24,0,0,1,328,52.05Z" style="fill:#263238"></path><path d="M334.64,58.33c-.06.07-.84-.61-2.25-1.47a15.87,15.87,0,0,0-6-2.15,21,21,0,0,0-6.37.53,6.62,6.62,0,0,1-2.7.11c0-.07,1-.1,2.63-.47a18.42,18.42,0,0,1,6.51-.69,14.59,14.59,0,0,1,6.1,2.36A8.24,8.24,0,0,1,334.64,58.33Z" style="fill:#263238"></path><path d="M333.84,62.17a3.9,3.9,0,0,1-.91.94,12.16,12.16,0,0,1-3.13,1.79A18.11,18.11,0,0,1,324.58,66a18.76,18.76,0,0,1-3.17,0,25.22,25.22,0,0,1-3.33-.62,28.21,28.21,0,0,1-10.61-5.15,14.1,14.1,0,0,1-2.5-2.59,6.22,6.22,0,0,1-.53-.82c-.11-.19-.16-.3-.14-.31a19.43,19.43,0,0,0,3.4,3.43,29.59,29.59,0,0,0,10.51,4.93,19.34,19.34,0,0,0,11.46-.31A13.1,13.1,0,0,0,332.8,63C333.48,62.47,333.81,62.13,333.84,62.17Z" style="fill:#263238"></path><g style="opacity:0.2"><path d="M329.76,50.88a.71.71,0,0,0-.27-.45,18.87,18.87,0,0,0-12.27-5.67c-3.84-.24-8.15.29-11.12,2.42a1.38,1.38,0,0,0,.27,2.49c2.25,1.1,5.67,2.46,8.31,2.33,2.94-.15,5.71-1.52,8.64-1.72a11.2,11.2,0,0,1,5.15.88,1.6,1.6,0,0,0,.76.2A.53.53,0,0,0,329.76,50.88Z" style="fill:#fff"></path></g><g style="opacity:0.2"><path d="M307.71,57a.78.78,0,0,0,.28.46,19.72,19.72,0,0,0,12.8,6c4,.26,8.52-.28,11.62-2.5a1.44,1.44,0,0,0-.27-2.6c-2.35-1.16-5.92-2.59-8.68-2.46-3.07.15-6,1.58-9,1.77a11.63,11.63,0,0,1-5.37-.93,1.77,1.77,0,0,0-.8-.21A.56.56,0,0,0,307.71,57Z" style="fill:#fff"></path></g><path d="M331.17,61.55s-.3.18-.89.4a16.86,16.86,0,0,1-2.55.75,23.28,23.28,0,0,1-3.91.53A27,27,0,0,1,319,63a26.29,26.29,0,0,1-4.69-1.21,22,22,0,0,1-3.58-1.67,16.69,16.69,0,0,1-2.21-1.47,3.53,3.53,0,0,1-.73-.65c.06-.08,1.15.77,3.11,1.8a27,27,0,0,0,3.57,1.54,28.51,28.51,0,0,0,4.61,1.14,28,28,0,0,0,4.73.29,26.59,26.59,0,0,0,3.86-.41C329.84,61.94,331.14,61.46,331.17,61.55Z" style="fill:#fff"></path></g><g id="freepik--coffee-cup-2--inject-78"><ellipse cx="349.27" cy="187.63" rx="29.02" ry="86.86" transform="translate(80.96 479.52) rotate(-75.65)" style="fill:#263238"></ellipse><path d="M394.62,223.07a176.16,176.16,0,0,1-19.22-1.13,242.56,242.56,0,0,1-33.33-6.17,241.87,241.87,0,0,1-32.19-10.59,158.32,158.32,0,0,1-25.21-12.86c-7.07-4.57-12.37-9.13-15.75-13.56-3.51-4.6-4.79-8.85-3.82-12.66s4.14-6.92,9.42-9.27c5.1-2.26,11.94-3.72,20.33-4.33a157.7,157.7,0,0,1,28.29.82,252.15,252.15,0,0,1,65.52,16.75,157.49,157.49,0,0,1,25.21,12.87c7.07,4.56,12.37,9.12,15.75,13.56,3.51,4.59,4.79,8.85,3.82,12.65s-4.14,6.93-9.42,9.27c-5.1,2.27-11.94,3.73-20.33,4.33C400.8,223,397.77,223.07,394.62,223.07Zm-90.7-70.83c-3.15,0-6.17.11-9.06.31-8.39.61-15.22,2.07-20.32,4.33-5.26,2.34-8.42,5.45-9.39,9.24s.31,8,3.81,12.61,8.67,9,15.74,13.54a156.94,156.94,0,0,0,25.2,12.87,242.19,242.19,0,0,0,32.18,10.58,242.43,242.43,0,0,0,33.32,6.17,157.54,157.54,0,0,0,28.28.81c8.39-.6,15.22-2.06,20.32-4.32,5.26-2.34,8.42-5.45,9.39-9.24h0c1-3.79-.31-8-3.81-12.61-3.38-4.43-8.67-9-15.74-13.55a157.77,157.77,0,0,0-25.2-12.86,252.28,252.28,0,0,0-65.5-16.75A176.16,176.16,0,0,0,303.92,152.24Z" style="fill:#455a64"></path><ellipse cx="362.58" cy="137.34" rx="22.6" ry="66.46" transform="translate(139.69 454.59) rotate(-75.65)" style="fill:#263238"></ellipse><path d="M396.74,164.76a132,132,0,0,1-14.26-.82,181.58,181.58,0,0,1-25.5-4.68,182.29,182.29,0,0,1-24.63-8.14,118.54,118.54,0,0,1-19.27-9.92c-5.4-3.53-9.45-7.06-12-10.5s-3.65-6.87-2.89-9.83,3.2-5.4,7.25-7.25,9.16-2.93,15.59-3.43a118.41,118.41,0,0,1,21.67.54,189.26,189.26,0,0,1,50.13,12.82,119.33,119.33,0,0,1,19.27,9.93c5.4,3.53,9.45,7.06,12,10.49s3.64,6.88,2.88,9.84-3.2,5.4-7.25,7.25-9.16,2.93-15.59,3.43C401.8,164.67,399.32,164.76,396.74,164.76ZM328.42,110q-3.87,0-7.41.27c-6.42.5-11.66,1.65-15.57,3.43s-6.47,4.26-7.22,7.21.21,6.24,2.88,9.79,6.61,7,12,10.48a118,118,0,0,0,19.26,9.93A184,184,0,0,0,357,159.21a181.58,181.58,0,0,0,25.5,4.68,118.35,118.35,0,0,0,21.66.55c6.42-.5,11.66-1.65,15.57-3.43s6.47-4.26,7.22-7.21-.21-6.24-2.87-9.8-6.62-7-12-10.48a118,118,0,0,0-19.26-9.92,189.38,189.38,0,0,0-50.11-12.82A134.43,134.43,0,0,0,328.42,110Z" style="fill:#455a64"></path><path d="M287.49,138.78c-.72.48-14.29,18.71-14.29,18.71L433.4,204l-3.78-27-1.95-4-.55-21.27L298.6,119.69l-8.25,17.66Z" style="fill:#263238"></path><polygon points="279.26 157.5 253.2 302.54 241.55 375.54 355.17 405.51 424.3 206.93 429.62 197.42 279.26 157.5" style="fill:#455a64"></polygon><g style="opacity:0.30000000000000004"><path d="M251.8,311.26a155.08,155.08,0,0,1,58.31,0c30.86,6.23,65.05,36.83,65.05,36.83l2.49-7.36-23.49-18.37-27.37-18-38.17-7.45-35.42,5.61Z"></path></g><ellipse cx="353.08" cy="181.96" rx="22.6" ry="81.04" transform="translate(89.31 478.95) rotate(-75.65)" style="fill:#455a64"></ellipse><path d="M423.84,209.05a2.62,2.62,0,0,1,.05-.43,6.39,6.39,0,0,0,.09-1.25,9.6,9.6,0,0,0-1.28-4.58c-2-3.71-6.44-8-12.7-12.15-12.52-8.3-31.93-16.34-54.12-22s-43.09-7.93-58.06-6.66c-7.47.61-13.47,2.25-17,4.57a9.54,9.54,0,0,0-3.32,3.4,5.55,5.55,0,0,0-.51,1.14,2.77,2.77,0,0,1-.17.39A2.65,2.65,0,0,1,277,171a5.43,5.43,0,0,1,.48-1.17,9.3,9.3,0,0,1,3.29-3.52c3.52-2.4,9.56-4.11,17.06-4.76,15-1.38,36,.84,58.22,6.52s41.67,13.81,54.2,22.23c6.26,4.17,10.74,8.56,12.67,12.36a9.49,9.49,0,0,1,1.21,4.67,5.66,5.66,0,0,1-.15,1.26A2.9,2.9,0,0,1,423.84,209.05Z" style="fill:#263238"></path><path d="M428,173.5s-.1-.07-.29-.24l-.82-.74-1.32-1.22-1.88-1.56a90,90,0,0,0-13-8.64C399.2,154.62,382.08,148,362.6,143a208.06,208.06,0,0,0-50.94-6.71c-6.6,0-11.93.24-15.6.54-1.84.14-3.27.28-4.23.39l-1.1.11a2.17,2.17,0,0,1-.38,0l.37-.07,1.09-.16c1-.15,2.39-.32,4.23-.5,3.67-.35,9-.7,15.62-.7a202.9,202.9,0,0,1,51.07,6.57c19.51,5.06,36.66,11.7,48.14,18.29a86.56,86.56,0,0,1,12.92,8.8l1.86,1.61,1.28,1.26.79.78A2,2,0,0,1,428,173.5Z" style="fill:#455a64"></path><path d="M268.44,210.46,252.62,307.3c49.34-10.58,88.56,2.62,125.53,36.95l31.4-94.95C372.58,215,317.78,199.88,268.44,210.46Z" style="fill:#ae7461"></path><ellipse cx="298.48" cy="390.03" rx="11.4" ry="58.74" transform="matrix(0.25, -0.97, 0.97, 0.25, -154.22, 580.51)" style="fill:#455a64"></ellipse><g style="opacity:0.30000000000000004"><ellipse cx="298.48" cy="390.03" rx="11.4" ry="58.74" transform="matrix(0.25, -0.97, 0.97, 0.25, -154.22, 580.51)"></ellipse></g><path d="M295.89,244.1c1.39.44,2.1,1.09,2.14,2a7.45,7.45,0,0,1-.83,3.22c-.6,1.29-1.11,1.95-1.55,2a.72.72,0,0,1-.43-.19,3.8,3.8,0,0,0-1.13-.39,5.75,5.75,0,0,0-1.49-.17,4.34,4.34,0,0,0-3.37,1.66,6.91,6.91,0,0,0-1.09,4.67,6.75,6.75,0,0,0,1.55,4.55,4.3,4.3,0,0,0,3.46,1.35,8.22,8.22,0,0,0,1.88-.32,3,3,0,0,0,1.46-.75.47.47,0,0,1,.29-.09c.15,0,.44.26.87.79a9.73,9.73,0,0,1,1.22,2.12,6.66,6.66,0,0,1,.61,2c0,1-.66,1.75-2.11,2.38A14.52,14.52,0,0,1,292.2,270a10.32,10.32,0,0,1-8.13-3.05q-3.29-3.27-3.56-9.5t2.76-9.94a10.41,10.41,0,0,1,7.87-3.93A13.6,13.6,0,0,1,295.89,244.1Z" style="fill:#fff"></path><path d="M303.2,267.44a11.87,11.87,0,0,1,1.36-14,8.8,8.8,0,0,1,12.32,1.2,12,12,0,0,1-1.37,14,7.85,7.85,0,0,1-6.39,1.92A7.93,7.93,0,0,1,303.2,267.44Zm7.2-9.79c-1.38-.14-2.18.92-2.4,3.16s.36,3.44,1.74,3.57,2.18-.92,2.4-3.16S311.77,257.78,310.4,257.65Z" style="fill:#fff"></path><path d="M323.67,258.61l-1.77-.38c-.36-.08-.36-.91,0-2.51s.7-2.35,1.06-2.27l1.76.38.17-.79q.83-3.81,2.74-4.92a6.55,6.55,0,0,1,4.78-.49,11.91,11.91,0,0,1,4.85,2.14c.17.11.21.39.12.83a7.1,7.1,0,0,1-1.07,2c-.62.89-1.09,1.38-1.41,1.46a4.89,4.89,0,0,0-2.35-1.3c-.94-.2-1.54.32-1.81,1.57l-.16.76,3,.64c.43.09.48.9.15,2.44s-.82,2.45-1.37,2.34L330,260l-2.75,12.72c-.06.29-1.15.21-3.27-.25s-3.15-.83-3.09-1.12Z" style="fill:#fff"></path><path d="M337.77,262l-1.71-.55c-.35-.11-.28-.94.22-2.5s.92-2.27,1.27-2.16l1.71.55.25-.77c.79-2.47,1.86-4,3.2-4.63a6.53,6.53,0,0,1,4.82,0,11.94,11.94,0,0,1,4.61,2.59c.16.13.18.41,0,.84a6.52,6.52,0,0,1-1.27,1.9c-.7.83-1.21,1.27-1.54,1.32a4.8,4.8,0,0,0-2.21-1.52q-1.37-.44-2,1.38l-.24.74,2.91.93c.42.13.39.95-.09,2.44s-1.05,2.37-1.59,2.2L344,264l-4,12.4c-.09.28-1.16.09-3.23-.58s-3.06-1.13-3-1.41Z" style="fill:#fff"></path><path d="M357.07,282.83a11.71,11.71,0,0,1-6-1.16,8.39,8.39,0,0,1-4.62-4.75,9.25,9.25,0,0,1,.49-7.3,10.21,10.21,0,0,1,5.06-5.51,7.82,7.82,0,0,1,6.65,0,8,8,0,0,1,4.44,4,6,6,0,0,1,0,5c-1.61,3.64-4.49,4.53-8.67,2.69l-2.32-1a1.74,1.74,0,0,0-.06,1.64,3.15,3.15,0,0,0,1.46,1.11,10.61,10.61,0,0,0,4.95.89s.07.19.1.61a5.8,5.8,0,0,1-.27,2.79C358,282.48,357.58,282.81,357.07,282.83Zm.08-11.58a1.35,1.35,0,0,0-.75-2,1.81,1.81,0,0,0-1.27-.1,1.55,1.55,0,0,0-.95.93l-.46,1,1.82.8A1.08,1.08,0,0,0,357.15,271.25Z" style="fill:#fff"></path><path d="M371.9,291.5a11.59,11.59,0,0,1-5.8-1.92,8.41,8.41,0,0,1-4-5.3,9.29,9.29,0,0,1,1.42-7.18,10.21,10.21,0,0,1,5.73-4.81,7.83,7.83,0,0,1,6.6.86,8,8,0,0,1,3.89,4.54,6,6,0,0,1-.65,4.94q-3.09,5.1-8.94,1.55L368,282.87a1.74,1.74,0,0,0-.27,1.62,3.16,3.16,0,0,0,1.31,1.29,10.63,10.63,0,0,0,4.79,1.52s0,.2,0,.61a5.67,5.67,0,0,1-.63,2.74A1.4,1.4,0,0,1,371.9,291.5ZM373.47,280a1.34,1.34,0,0,0-.49-2.1,1.79,1.79,0,0,0-1.24-.26,1.53,1.53,0,0,0-1.06.8l-.59,1,1.7,1A1.08,1.08,0,0,0,373.47,280Z" style="fill:#fff"></path><path d="M314.84,258.49a7.59,7.59,0,0,0-2.19-4.18,3.6,3.6,0,0,0-4.41-.35l1.1-1.26a7.08,7.08,0,0,0-3.14,4.42,15.34,15.34,0,0,0-.19,5.53,6.4,6.4,0,0,0,1.53,4,4.07,4.07,0,0,0,4.57.51,5.82,5.82,0,0,0,2.84-3.82A10.65,10.65,0,0,0,314.84,258.49Z" style="fill:#fff"></path><path d="M308.88,270.55c-.25-.29.48-1.19.95-2.78a7.24,7.24,0,0,0-.67-6,11.22,11.22,0,0,1-1.46-4.14,6.85,6.85,0,0,1,.73-3.7A5.11,5.11,0,0,1,310,252c.49-.33.84-.38,1-.25.26.29-.46,1.2-.82,2.8a6.47,6.47,0,0,0-.07,2.72,12.77,12.77,0,0,0,1.41,3.28,10.25,10.25,0,0,1,.85,2.15,7.74,7.74,0,0,1,.24,2.26,7.63,7.63,0,0,1-1.08,3.55C310.37,270.36,309.06,270.82,308.88,270.55Z" style="fill:#ae7461"></path><g style="opacity:0.30000000000000004"><path d="M385.41,238.7a13.09,13.09,0,0,0-18.38,0q-3.4,3.77-3.41,10.43T367,259.56a13.11,13.11,0,0,0,18.38,0q3.38-3.76,3.38-10.43T385.41,238.7Zm-5.91,16.11A11.18,11.18,0,0,1,378,260a8.38,8.38,0,0,1-2.34,2.66c-.69.48-1.17.59-1.3.44-.3-.35.87-1.62,1.69-4a11.73,11.73,0,0,0,.62-4.24,11.54,11.54,0,0,0-1.52-5,16.52,16.52,0,0,1-2.16-6,10,10,0,0,1,1-5.34,7.78,7.78,0,0,1,2.21-2.79c.68-.51,1.16-.63,1.29-.48.31.34-.85,1.63-1.49,4.05a9.81,9.81,0,0,0-.21,4.2,18.78,18.78,0,0,0,2.1,5,15.79,15.79,0,0,1,1.25,3.11A11.51,11.51,0,0,1,379.5,254.81Z" style="fill:#fff"></path></g><g style="opacity:0.30000000000000004"><path d="M322.89,224.81a10.27,10.27,0,0,0-14.41,0q-2.69,3-2.68,8.18c0,3.49.89,6.21,2.68,8.18a10.25,10.25,0,0,0,14.41,0c1.77-2,2.66-4.69,2.66-8.18S324.66,226.78,322.89,224.81Zm-4.63,12.64a9,9,0,0,1-1.16,4,6.79,6.79,0,0,1-1.84,2.09c-.54.37-.92.46-1,.34s.68-1.27,1.32-3.14a9.2,9.2,0,0,0,.49-3.33,9,9,0,0,0-1.19-3.91,13.15,13.15,0,0,1-1.7-4.72,8,8,0,0,1,.77-4.18,6.1,6.1,0,0,1,1.74-2.2c.53-.4.91-.49,1-.37.25.27-.67,1.28-1.17,3.17a7.77,7.77,0,0,0-.16,3.3,14.45,14.45,0,0,0,1.65,3.92,12.26,12.26,0,0,1,1,2.45A9.06,9.06,0,0,1,318.26,237.45Z" style="fill:#fff"></path></g><g style="opacity:0.30000000000000004"><path d="M330.93,286.48a9.16,9.16,0,0,0-12.87,0,12.34,12.34,0,0,0,0,14.6,9.16,9.16,0,0,0,12.87,0,12.43,12.43,0,0,0,0-14.6Zm-4.14,11.28a7.77,7.77,0,0,1-1,3.6,5.76,5.76,0,0,1-1.64,1.86c-.48.34-.81.42-.9.31s.61-1.13,1.18-2.8a8.25,8.25,0,0,0,.43-3,8,8,0,0,0-1.06-3.49,11.61,11.61,0,0,1-1.52-4.21,7.11,7.11,0,0,1,.69-3.73,5.48,5.48,0,0,1,1.55-2c.47-.36.81-.44.9-.33s-.59,1.14-1,2.83a6.92,6.92,0,0,0-.15,2.94,13,13,0,0,0,1.48,3.51,11.66,11.66,0,0,1,.87,2.18A8.15,8.15,0,0,1,326.79,297.76Z" style="fill:#fff"></path></g><g style="opacity:0.30000000000000004"><path d="M277.76,272.54a10.33,10.33,0,0,0-12.53,7.28q-.84,3.92,1.8,8.46t6.45,5.76a9.35,9.35,0,0,0,7.77-1.07,9.24,9.24,0,0,0,4.76-6.2q.83-3.91-1.82-8.46T277.76,272.54Zm2.34,13.33a8.74,8.74,0,0,1,1,4.1,6.59,6.59,0,0,1-.54,2.74c-.28.6-.56.86-.71.81-.35-.12-.05-1.45-.44-3.4a8.53,8.53,0,0,0-4.26-5.94,13,13,0,0,1-3.86-3.25,7.85,7.85,0,0,1-1.44-4,6.09,6.09,0,0,1,.4-2.79c.26-.61.54-.88.69-.83.35.11.06,1.45.59,3.35a7.71,7.71,0,0,0,1.52,2.95,14.8,14.8,0,0,0,3.41,2.58,11.84,11.84,0,0,1,2.08,1.63A8.65,8.65,0,0,1,280.1,285.87Z" style="fill:#fff"></path></g><g style="opacity:0.30000000000000004"><path d="M379.36,311.94a10.63,10.63,0,0,0-9.16-11.75q-4.11-.3-8.37,3t-5,7.38a9.59,9.59,0,0,0,2.18,7.76,9.48,9.48,0,0,0,7,4q4.1.29,8.36-3T379.36,311.94Zm-13.25,4.25a9.27,9.27,0,0,1-4,1.63,6.75,6.75,0,0,1-2.87-.18c-.65-.19-1-.45-.92-.6.07-.37,1.47-.26,3.4-.93a8.83,8.83,0,0,0,5.45-5.17,13.69,13.69,0,0,1,2.77-4.39,8.27,8.27,0,0,1,3.9-2,6.51,6.51,0,0,1,2.89,0c.67.18,1,.43.95.59-.06.37-1.47.27-3.33,1.07a7.76,7.76,0,0,0-2.79,2,14.69,14.69,0,0,0-2.15,3.84,13.12,13.12,0,0,1-1.38,2.35A8.87,8.87,0,0,1,366.11,316.19Z" style="fill:#fff"></path></g></g><g id="freepik--coffee-cup-1--inject-78"><path d="M240.81,187.29c-.27,11-42.85,19-93,17.84S58.9,194.48,59.16,183.44c.05-2,1.16-15.35,1.16-15.35,11.39-8,47.29-3.94,88.42-3,41.82,1,83.23-.19,93.59,8.53C242.33,173.66,240.85,185.45,240.81,187.29Z" style="fill:#263238"></path><ellipse cx="151.05" cy="171.17" rx="20" ry="90.88" transform="translate(-23.67 318.09) rotate(-88.63)" style="fill:#263238"></ellipse><path d="M241.9,173.33s-.05-.33-.12-1a9.21,9.21,0,0,0-.39-1.15,7.33,7.33,0,0,0-.9-1.42c-1.55-2.05-4.8-4.15-9.24-6.09-8.95-3.85-22.77-7.11-40-9.37a395.28,395.28,0,0,0-61-2.86,297.39,297.39,0,0,0-35.95,3.06,138.07,138.07,0,0,0-18.62,4,51.38,51.38,0,0,0-9,3.59,17.44,17.44,0,0,0-4,2.76,5.17,5.17,0,0,0-.21,8.28,17.64,17.64,0,0,0,3.86,2.95,50.23,50.23,0,0,0,8.84,4,138.9,138.9,0,0,0,18.41,4.93,299.25,299.25,0,0,0,35.76,4.77,395.47,395.47,0,0,0,61.09,0c17.33-1.44,31.29-4,40.41-7.45,4.53-1.73,7.88-3.67,9.52-5.65a7.43,7.43,0,0,0,1-1.37,10.91,10.91,0,0,0,.45-1.13c.09-.64.16-1,.16-1s0,.34-.11,1a10.35,10.35,0,0,1-.43,1.15,7.52,7.52,0,0,1-1,1.41c-1.63,2-5,4-9.53,5.77-9.13,3.49-23.1,6.14-40.45,7.63a392.49,392.49,0,0,1-61.15.06,298.43,298.43,0,0,1-35.83-4.75,137.87,137.87,0,0,1-18.49-5,51.07,51.07,0,0,1-8.93-4,17.85,17.85,0,0,1-4-3,5.68,5.68,0,0,1,.22-9,18,18,0,0,1,4.11-2.84,51.44,51.44,0,0,1,9.11-3.62A139.61,139.61,0,0,1,94.2,154a298.14,298.14,0,0,1,36-3,392.35,392.35,0,0,1,61.08,3c17.26,2.31,31.09,5.63,40.05,9.55,4.44,2,7.7,4.12,9.24,6.22a6.93,6.93,0,0,1,.89,1.45,11,11,0,0,1,.38,1.17C241.89,173,241.9,173.33,241.9,173.33Z" style="fill:#455a64"></path><ellipse cx="149.43" cy="168.94" rx="17.89" ry="81.29" transform="translate(-23.03 314.3) rotate(-88.63)" style="fill:#263238"></ellipse><path d="M230.69,170.88s-.05-.3-.11-.88a8.39,8.39,0,0,0-.35-1,6.75,6.75,0,0,0-.81-1.26c-1.38-1.84-4.29-3.72-8.26-5.45-8-3.44-20.37-6.35-35.79-8.37a354.56,354.56,0,0,0-54.57-2.55,265.3,265.3,0,0,0-32.15,2.74A123.56,123.56,0,0,0,82,157.69a45.14,45.14,0,0,0-8.06,3.21,15.75,15.75,0,0,0-3.57,2.46,4.61,4.61,0,0,0-.18,7.38,15.61,15.61,0,0,0,3.44,2.63,46.4,46.4,0,0,0,7.9,3.59A125.29,125.29,0,0,0,98,181.37a266.64,266.64,0,0,0,32,4.26,353.57,353.57,0,0,0,54.63.06c15.51-1.28,28-3.61,36.15-6.66,4.05-1.54,7.05-3.28,8.52-5.05a6.73,6.73,0,0,0,.86-1.22c.18-.39.3-.74.4-1,.09-.57.15-.87.15-.87s0,.3-.1.88a9.35,9.35,0,0,1-.38,1,7.3,7.3,0,0,1-.85,1.25c-1.47,1.81-4.48,3.59-8.53,5.17-8.17,3.12-20.67,5.5-36.19,6.84a350.72,350.72,0,0,1-54.7.05,265.94,265.94,0,0,1-32-4.24,124.64,124.64,0,0,1-16.54-4.43,45.45,45.45,0,0,1-8-3.63,16,16,0,0,1-3.55-2.72A5.1,5.1,0,0,1,70,163a16.67,16.67,0,0,1,3.68-2.54,45.91,45.91,0,0,1,8.16-3.24,122.56,122.56,0,0,1,16.72-3.63,266.38,266.38,0,0,1,32.21-2.71,350.38,350.38,0,0,1,54.64,2.66c15.44,2.07,27.81,5,35.82,8.56,4,1.76,6.89,3.68,8.27,5.56a6.75,6.75,0,0,1,.79,1.3,9.55,9.55,0,0,1,.34,1.05C230.68,170.58,230.69,170.88,230.69,170.88Z" style="fill:#455a64"></path><path d="M230.69,170.88l-5.4-39s-13.74-9.48-42-10.75-46.86,1.45-46.86,1.45-41.63,4.27-49.94,7.61c0,0-8.91-3.31-9.57-.48-.12.49-8.75,37.31-8.75,37.31" style="fill:#263238"></path><path d="M68.16,167s0-.29.17-.86l.56-2.51c.5-2.22,1.24-5.44,2.18-9.55l3.44-14.93c.67-2.89,1.39-6,2.14-9.23a2.71,2.71,0,0,1,.21-.65,1.46,1.46,0,0,1,.51-.51,2.93,2.93,0,0,1,1.3-.39,11.1,11.1,0,0,1,2.64.17A32.94,32.94,0,0,1,86.55,130H86.4l1.68-.56c.57-.19,1.15-.3,1.73-.46,1.16-.31,2.35-.53,3.55-.79,2.4-.48,4.88-.91,7.42-1.32,5.07-.82,10.39-1.55,15.9-2.26s11.22-1.38,17.08-2c1.48-.15,2.94-.32,4.42-.51s3-.33,4.49-.46q4.52-.4,9.14-.66c7.24-.38,14.32-.49,21.19-.39a188.54,188.54,0,0,1,19.84,1.1,103,103,0,0,1,17.79,3.67,73.17,73.17,0,0,1,7.85,2.82,45.88,45.88,0,0,1,6.92,3.55l.07,0,0,.09c1.62,12,2.94,21.77,3.86,28.54.44,3.36.78,6,1,7.78.11.88.19,1.56.25,2s.07.7.07.7-.05-.23-.12-.69-.18-1.15-.31-2c-.26-1.8-.64-4.42-1.13-7.77-1-6.77-2.34-16.51-4-28.52l.08.14a46.46,46.46,0,0,0-6.87-3.48,71.63,71.63,0,0,0-7.81-2.78,103,103,0,0,0-17.72-3.62A190,190,0,0,0,173,121.07c-6.85-.09-13.93,0-21.15.4-3.07.16-6.12.39-9.12.65-1.5.14-3,.29-4.48.46s-3,.36-4.42.51c-5.86.63-11.57,1.3-17.08,2s-10.82,1.43-15.89,2.23c-2.54.4-5,.82-7.41,1.3-1.19.25-2.38.47-3.53.78-.57.15-1.15.26-1.71.44l-1.64.54-.09,0-.07,0A31.71,31.71,0,0,0,81.24,129a9.91,9.91,0,0,0-2.53-.18,2.65,2.65,0,0,0-1.14.32A1.2,1.2,0,0,0,77,130c-.77,3.25-1.5,6.33-2.18,9.22C73.48,145,72.28,150,71.3,154.13s-1.76,7.32-2.29,9.53c-.26,1.08-.47,1.91-.61,2.49S68.16,167,68.16,167Z" style="fill:#455a64"></path><path d="M219.83,138.44a9.9,9.9,0,0,1-1,1.16,18.25,18.25,0,0,1-3.57,2.57,57.57,57.57,0,0,1-15.2,5.39A72.57,72.57,0,0,1,189,149.19c-4,.26-8.29.36-12.81.31-9-.08-18.92-.74-29.3-1.36s-20.28-1.43-29.23-2.59a226.17,226.17,0,0,1-23.59-4.26c-1.66-.38-3.23-.79-4.72-1.18s-2.89-.77-4.17-1.22a12.42,12.42,0,0,1-5.81-3.76,7.46,7.46,0,0,1-1.68-4,4.46,4.46,0,0,1,.13-1.53,8.12,8.12,0,0,0,0,1.52A7.43,7.43,0,0,0,79.53,135a12.19,12.19,0,0,0,5.75,3.61c1.27.44,2.67.81,4.16,1.18s3.06.77,4.72,1.14a233.51,233.51,0,0,0,23.56,4.14c8.94,1.13,18.82,1.92,29.2,2.55s20.27,1.29,29.28,1.4c4.5.06,8.78,0,12.78-.26a72.44,72.44,0,0,0,11-1.56A59,59,0,0,0,215.16,142a19,19,0,0,0,3.6-2.47C219.48,138.83,219.81,138.42,219.83,138.44Z" style="fill:#455a64"></path><path d="M166.34,127.6a4.9,4.9,0,0,1-.84,0l-2.4-.09c-2.08-.08-5.09-.18-8.82-.23a277.29,277.29,0,0,0-29.06,1.14,262.83,262.83,0,0,0-28.76,4.22,20,20,0,0,0-8,3.45,14.67,14.67,0,0,0-2.25,2.29,6.08,6.08,0,0,1,.45-.71,10.53,10.53,0,0,1,1.67-1.74,19.57,19.57,0,0,1,8-3.65,237.25,237.25,0,0,1,28.81-4.38,250.71,250.71,0,0,1,29.11-1c3.73.1,6.74.25,8.82.4l2.39.18A5.17,5.17,0,0,1,166.34,127.6Z" style="fill:#455a64"></path><path d="M218.42,137.14a6,6,0,0,0-1.85-2.22,11.46,11.46,0,0,0-3.06-1.51c-1.27-.44-2.76-.81-4.39-1.28a194.09,194.09,0,0,0-52.37-7c-1.7,0-3.23,0-4.58,0s-2.51.06-3.46.1l-2.18.08a4.15,4.15,0,0,1-.77,0,4.21,4.21,0,0,1,.76-.1l2.18-.17c1-.08,2.11-.13,3.46-.19s2.88-.11,4.58-.13a179,179,0,0,1,52.48,7.06c1.63.49,3.11.89,4.39,1.36a11.29,11.29,0,0,1,3.08,1.62,5.26,5.26,0,0,1,1.44,1.66A2.82,2.82,0,0,1,218.42,137.14Z" style="fill:#455a64"></path><path d="M170.58,149.14s.51-.18,1.51-.5l4.37-1.42v.25l-3.26-.72c-1.2-.28-2.48-.65-3.87-1l-9.4-2.39c-6.93-1.73-15.11-3.65-23.88-5.54-7.56-1.62-14.72-3-21-4.18h.06a94.54,94.54,0,0,0-18.76,2.87,14,14,0,0,0-4.82,2.23,3.16,3.16,0,0,0-1.09,1.5,3.13,3.13,0,0,1,.12-.48c.07-.14.17-.32.3-.53a4.42,4.42,0,0,1,.57-.6,13.52,13.52,0,0,1,4.84-2.38,89.46,89.46,0,0,1,18.81-3.07h0c6.26,1.11,13.44,2.51,21,4.13,8.78,1.89,17,3.84,23.88,5.61,3.47.88,6.62,1.73,9.38,2.48,1.39.38,2.66.76,3.85,1.06l3.24.77.47.11-.46.13-4.41,1.3A8.68,8.68,0,0,1,170.58,149.14Z" style="fill:#455a64"></path><path d="M93.28,140.67a1.68,1.68,0,0,1,.35-.22,9.77,9.77,0,0,1,1.05-.56,28,28,0,0,1,4.26-1.49A90,90,0,0,1,114.75,136h.06c5.54,1,12,2.19,18.74,3.57,11.14,2.28,21.17,4.61,28.38,6.45,3.62.92,6.52,1.71,8.53,2.28l2.3.67a4.94,4.94,0,0,1,.8.27,4.51,4.51,0,0,1-.83-.17l-2.32-.58-8.56-2.11c-7.24-1.75-17.27-4-28.41-6.29-6.78-1.39-13.18-2.62-18.72-3.63h.06A98.13,98.13,0,0,0,99,138.66,30.83,30.83,0,0,0,94.74,140C93.79,140.44,93.3,140.7,93.28,140.67Z" style="fill:#455a64"></path><path d="M114.49,136c-.14,0-.11-.65.08-1.37s.45-1.27.58-1.24.11.65-.08,1.37S114.63,136,114.49,136Z" style="fill:#455a64"></path><polygon points="153.29 135.62 153.68 128.55 172.94 133.47 197.84 136.96 172.53 141.03 153.29 135.62" style="fill:#455a64"></polygon><path d="M172.53,141a10.89,10.89,0,0,1-.27-3.89,11.09,11.09,0,0,1,.6-3.86,23.76,23.76,0,0,1-.08,3.88A23.7,23.7,0,0,1,172.53,141Z" style="fill:#263238"></path><polygon points="238.72 223.25 76.51 266.55 149.96 460.01 264.95 431.81 238.72 223.25" style="fill:#ED500A"></polygon><g style="opacity:0.30000000000000004"><path d="M84.7,288.13l-4.63-12.74,65.83-3.27,30.3-7.2,53.12-22.72,10.73-8.46.47,3.76s-14.35,15.2-45.76,30.14C179,275.14,126,293.53,84.7,288.13Z"></path></g><ellipse cx="157.49" cy="245.54" rx="89.89" ry="26.43" transform="translate(-54.96 45.64) rotate(-14.07)" style="fill:#ED500A"></ellipse><path d="M247.66,286.85c-42.89,33.53-98.33,45.48-151.72,34.83l38.4,98.75a164.57,164.57,0,0,0,125.94-33.89Z" style="fill:#ae7461"></path><ellipse cx="157" cy="243.6" rx="84.22" ry="19.95" transform="translate(-54.5 45.46) rotate(-14.07)" style="fill:#ED500A"></ellipse><g style="opacity:0.30000000000000004"><ellipse cx="157" cy="243.6" rx="84.22" ry="19.95" transform="translate(-54.5 45.46) rotate(-14.07)"></ellipse></g><path d="M151.58,256.92c-.58-2.46.82-5,2.7-6.7s4.22-2.76,6.33-4.16,4.1-3.3,4.63-5.77c.45-2.12-.24-4.29-.5-6.44s.09-4.68,1.92-5.85c2-1.28,4.9-.08,6.11,2s1.11,4.64.64,7a27.79,27.79,0,0,1-11.12,16.72" style="fill:#ae7461"></path><path d="M190,223.84c-.62-2.26-3.4-3.84-5.49-2.76s-3.45,2.33-4,4.51.39,4.89,2.53,5.61a5,5,0,0,0,4.59-1.15A6.18,6.18,0,0,0,190,223.84Z" style="fill:#ae7461"></path><path d="M55.72,217.68c-2.36-1-6.25.27-6.69,2.77l0-1A5.41,5.41,0,0,0,51.4,226,5,5,0,0,0,58,224,4.73,4.73,0,0,0,55.72,217.68Z" style="fill:#ae7461"></path><path d="M219,242.38c.82-2.18-54.51,5-75.87,7.73-10.17,1.31-20.53,2.69-30.57,5-12.27,2.77-22.74,6-33.16,13,0,0,4.33,5.46,25.24,3.75,15.45-1.27,26.38-1.2,60.31-9.63S218.28,244.32,219,242.38Z" style="fill:#ae7461"></path><path d="M87.14,264.12a46.29,46.29,0,0,0-34.29-18.87c-2.89-.17-6.57-.62-7.34-3.41C45,240,46.28,238,48,237.13a10.71,10.71,0,0,1,5.62-.77A44.57,44.57,0,0,1,82.28,249.5c1.76,1.78,3.48,3.8,5.87,4.56s5.6-.49,5.81-3c.11-1.39-.71-2.66-1.21-4s-.55-3.06.64-3.79c1.42-.89,3.17.45,4.21,1.77s2.4,2.89,4,2.49c2-.48,2.11-3.27,1.43-5.18s-1.7-4.11-.61-5.82,3.78-1.66,5.3-.35a7.72,7.72,0,0,1,2.2,5.44,46.18,46.18,0,0,0,.32,6,9.58,9.58,0,0,0,7.54,7.53,8.23,8.23,0,0,0,9-5.3c.91-2.87,0-6,.15-9s2.18-6.49,5.16-6.14c2.07.24,3.5,2.29,3.89,4.33s0,4.14,0,6.21.41,4.34,2,5.71,4.51,1.15,5.25-.79" style="fill:#ae7461"></path><path d="M77.66,274.81l.42.18,1.21.57a32.81,32.81,0,0,0,4.88,1.59A80.24,80.24,0,0,0,102.93,279c16,0,38-2.65,61.79-8.05a222.56,222.56,0,0,0,32.81-10.1,182.37,182.37,0,0,0,25.3-12,78.16,78.16,0,0,0,15.22-11.14,38.41,38.41,0,0,0,3.44-3.81l.79-1.07a3.22,3.22,0,0,1,.29-.36l-.25.39-.75,1.11a35.23,35.23,0,0,1-3.38,3.89A76.57,76.57,0,0,1,223,249.12a178.76,178.76,0,0,1-25.32,12.17,220.19,220.19,0,0,1-32.87,10.16c-23.8,5.41-45.88,8-61.9,7.91a78.14,78.14,0,0,1-18.82-2,31.3,31.3,0,0,1-4.87-1.68L78.05,275C77.79,274.9,77.66,274.81,77.66,274.81Z" style="fill:#263238"></path><path d="M157.84,356.82c1.29.65,1.9,1.4,1.8,2.25a7.25,7.25,0,0,1-1.31,3.06c-.79,1.19-1.4,1.75-1.83,1.71a.72.72,0,0,1-.4-.25,3.54,3.54,0,0,0-1-.56,6,6,0,0,0-1.46-.4,4.3,4.3,0,0,0-3.58,1.13,6.93,6.93,0,0,0-1.8,4.44,6.74,6.74,0,0,0,.84,4.73,4.32,4.32,0,0,0,3.21,1.87,8.83,8.83,0,0,0,1.91,0,3.1,3.1,0,0,0,1.56-.51c.05-.05.15-.06.3,0s.39.31.73.91a9.61,9.61,0,0,1,.88,2.28,6.2,6.2,0,0,1,.28,2.12c-.1,1-.91,1.62-2.44,2a14.52,14.52,0,0,1-5.28.28,10.36,10.36,0,0,1-7.56-4.27q-2.73-3.74-2.06-9.94t4.27-9.39a10.36,10.36,0,0,1,8.37-2.67A13.71,13.71,0,0,1,157.84,356.82Z" style="fill:#fff"></path><path d="M164.08,380.15a11.91,11.91,0,0,1-.48-14,8.82,8.82,0,0,1,12.37-.43,12,12,0,0,1,.48,14,8.82,8.82,0,0,1-12.37.43Zm5.86-10.65c-1.39,0-2,1.19-2,3.45s.8,3.36,2.19,3.31,2-1.2,2-3.45S171.32,369.45,169.94,369.5Z" style="fill:#fff"></path><path d="M182.66,367.58l-1.78.31c-.36.07-.68-.7-1-2.31s-.24-2.44.12-2.5l1.77-.32-.14-.8c-.45-2.55-.23-4.42.67-5.59a6.58,6.58,0,0,1,4.25-2.26,12,12,0,0,1,5.29.14c.21,0,.35.28.43.73a6.72,6.72,0,0,1-.23,2.26,3.78,3.78,0,0,1-.75,1.89,4.89,4.89,0,0,0-2.67-.31q-1.41.26-1.08,2.13l.14.76,3-.53c.44-.08.79.66,1.06,2.2s.18,2.59-.38,2.68l-2.32.42,2.28,12.81c.05.29-1,.63-3.13,1s-3.23.42-3.28.13Z" style="fill:#fff"></path><path d="M196.51,364.66l-1.7.58c-.35.11-.79-.6-1.3-2.15s-.61-2.37-.26-2.49L195,360l-.26-.77c-.82-2.46-.88-4.34-.16-5.63a6.59,6.59,0,0,1,3.87-2.87,12.12,12.12,0,0,1,5.25-.64c.21,0,.39.23.53.66a6.6,6.6,0,0,1,.11,2.27,3.64,3.64,0,0,1-.47,2,4.85,4.85,0,0,0-2.68.09c-.91.3-1.16,1.06-.75,2.27l.24.73,2.9-1c.41-.14.87.53,1.37,2s.55,2.53,0,2.71l-2.23.75L206.84,375c.09.28-.89.76-3,1.45s-3.13.9-3.22.62Z" style="fill:#fff"></path><path d="M226.14,364.72a11.65,11.65,0,0,1-4.48,4.15,8.35,8.35,0,0,1-6.56.91,9.24,9.24,0,0,1-5.6-4.71,10.19,10.19,0,0,1-1.45-7.33,7.87,7.87,0,0,1,3.93-5.37,8.06,8.06,0,0,1,5.86-1.21,6,6,0,0,1,4,2.95q3,5.16-3,8.58L216.71,364a1.71,1.71,0,0,0,1.28,1,3.07,3.07,0,0,0,1.76-.52A10.69,10.69,0,0,0,223.4,361s.19.06.54.28a5.72,5.72,0,0,1,2.1,1.87A1.42,1.42,0,0,1,226.14,364.72Zm-9.29-6.92a1.34,1.34,0,0,0-2.07-.58,1.77,1.77,0,0,0-.83,1,1.5,1.5,0,0,0,.19,1.31l.57,1,1.71-1A1.08,1.08,0,0,0,216.85,357.8Z" style="fill:#fff"></path><path d="M242.37,349.69a11.6,11.6,0,0,1-3.14,5.24,8.4,8.4,0,0,1-6,2.71,9.26,9.26,0,0,1-6.7-3,10.22,10.22,0,0,1-3.44-6.64,7.86,7.86,0,0,1,2.28-6.25,8,8,0,0,1,5.29-2.8,6,6,0,0,1,4.68,1.72q4.29,4.13-.44,9.05l-1.76,1.84a1.74,1.74,0,0,0,1.52.61,3,3,0,0,0,1.54-1,10.59,10.59,0,0,0,2.54-4.34s.2,0,.6.12a5.67,5.67,0,0,1,2.54,1.21A1.38,1.38,0,0,1,242.37,349.69Zm-10.85-4a1.35,1.35,0,0,0-2.16,0,1.84,1.84,0,0,0-.52,1.16,1.55,1.55,0,0,0,.55,1.21l.82.79,1.37-1.43A1.09,1.09,0,0,0,231.52,345.65Z" style="fill:#fff"></path><path d="M174.45,370.63a7.61,7.61,0,0,0-2-4.24,3.59,3.59,0,0,0-4.39-.51l1.14-1.21a7,7,0,0,0-3.29,4.31,15.28,15.28,0,0,0-.37,5.52,6.34,6.34,0,0,0,1.39,4.06,4.08,4.08,0,0,0,4.55.67,5.83,5.83,0,0,0,3-3.73A10.54,10.54,0,0,0,174.45,370.63Z" style="fill:#fff"></path><path d="M168.09,382.5c-.24-.31.52-1.19,1-2.75a8.1,8.1,0,0,0,.43-2.77,7.84,7.84,0,0,0-.9-3.26,11.27,11.27,0,0,1-1.33-4.19,6.83,6.83,0,0,1,.86-3.67,5.12,5.12,0,0,1,1.65-1.83c.5-.31.85-.35,1-.22.25.3-.51,1.19-.92,2.77a6.72,6.72,0,0,0-.16,2.72,13.28,13.28,0,0,0,1.3,3.33,10.52,10.52,0,0,1,.78,2.17,7.38,7.38,0,0,1,.16,2.27,7.51,7.51,0,0,1-1.19,3.51C169.59,382.35,168.26,382.76,168.09,382.5Z" style="fill:#ae7461"></path><g style="opacity:0.30000000000000004"><path d="M248.19,370.62a9.15,9.15,0,0,0-12.86,0,12.34,12.34,0,0,0,0,14.6,9.15,9.15,0,0,0,12.86,0,12.43,12.43,0,0,0,0-14.6Zm-4.14,11.28a7.73,7.73,0,0,1-1,3.6,5.94,5.94,0,0,1-1.64,1.87c-.48.33-.82.41-.91.3s.61-1.13,1.18-2.8a7.59,7.59,0,0,0-.62-6.46,11.56,11.56,0,0,1-1.52-4.21,7,7,0,0,1,.69-3.74,5.37,5.37,0,0,1,1.55-2c.47-.35.81-.43.9-.33s-.6,1.14-1.05,2.83a6.93,6.93,0,0,0-.14,2.94,12.77,12.77,0,0,0,1.47,3.51,11,11,0,0,1,.87,2.18A7.53,7.53,0,0,1,244.05,381.9Z" style="fill:#fff"></path></g><g style="opacity:0.30000000000000004"><path d="M174.69,333.32a8.22,8.22,0,0,0-6.86,1.07,8.31,8.31,0,0,0-4.15,5.6,12.37,12.37,0,0,0,7.57,12.48,9.15,9.15,0,0,0,11-6.66,12.42,12.42,0,0,0-7.56-12.49Zm2.3,11.79a7.89,7.89,0,0,1,1,3.62,5.93,5.93,0,0,1-.44,2.44c-.24.54-.49.78-.62.73-.31-.09-.07-1.28-.44-3a8.25,8.25,0,0,0-1.17-2.76,8.07,8.07,0,0,0-2.72-2.44,11.68,11.68,0,0,1-3.48-2.81,7,7,0,0,1-1.34-3.55,5.37,5.37,0,0,1,.31-2.48c.22-.55.46-.79.59-.75.32.09.09,1.28.58,3a6.89,6.89,0,0,0,1.4,2.59,12.85,12.85,0,0,0,3.08,2.24,10.79,10.79,0,0,1,1.87,1.41A7.75,7.75,0,0,1,177,345.11Z" style="fill:#fff"></path></g><g style="opacity:0.30000000000000004"><path d="M220.44,323.63a9.19,9.19,0,0,0-12.87,0,12.34,12.34,0,0,0,0,14.6,9.16,9.16,0,0,0,12.87,0,12.43,12.43,0,0,0,0-14.6Zm-4.14,11.28a7.81,7.81,0,0,1-1,3.61,5.76,5.76,0,0,1-1.64,1.86c-.48.34-.81.41-.9.31s.61-1.14,1.18-2.81a8.23,8.23,0,0,0,.43-3,8,8,0,0,0-1.06-3.49,11.67,11.67,0,0,1-1.52-4.21,7.13,7.13,0,0,1,.69-3.74,5.52,5.52,0,0,1,1.55-2c.47-.36.81-.44.9-.34s-.59,1.14-1,2.84a6.9,6.9,0,0,0-.15,2.94,12.92,12.92,0,0,0,1.48,3.5,11.66,11.66,0,0,1,.87,2.18A8.23,8.23,0,0,1,216.3,334.91Z" style="fill:#fff"></path></g><g style="opacity:0.30000000000000004"><path d="M210.63,384.83a5.69,5.69,0,0,0-4.49-1.85,5.77,5.77,0,0,0-4.51,1.85,8.65,8.65,0,0,0,0,10.22,5.79,5.79,0,0,0,4.51,1.84,5.72,5.72,0,0,0,4.49-1.84,8.7,8.7,0,0,0,0-10.22Zm-2.89,7.89a5.51,5.51,0,0,1-.73,2.52,4.16,4.16,0,0,1-1.14,1.31c-.34.23-.58.29-.64.21s.43-.79.83-2a5.77,5.77,0,0,0,.3-2.08,5.54,5.54,0,0,0-.74-2.44,8.08,8.08,0,0,1-1.06-2.95,4.91,4.91,0,0,1,.48-2.62,3.87,3.87,0,0,1,1.08-1.37c.33-.25.57-.3.63-.23s-.41.8-.73,2a4.81,4.81,0,0,0-.1,2.06,9.08,9.08,0,0,0,1,2.46,7.54,7.54,0,0,1,.61,1.52A5.51,5.51,0,0,1,207.74,392.72Z" style="fill:#fff"></path></g><g style="opacity:0.30000000000000004"><path d="M134.63,346.18a6.42,6.42,0,0,0-9,0,8.61,8.61,0,0,0,0,10.22,6.4,6.4,0,0,0,9,0,8.7,8.7,0,0,0,0-10.22Zm-2.9,7.9a5.39,5.39,0,0,1-.72,2.52,4.17,4.17,0,0,1-1.15,1.31c-.33.23-.57.28-.63.21s.42-.79.82-2a5.77,5.77,0,0,0,.31-2.08,5.64,5.64,0,0,0-.75-2.45,8.22,8.22,0,0,1-1.06-2.94,5,5,0,0,1,.48-2.62,4,4,0,0,1,1.09-1.37c.33-.25.57-.3.63-.23s-.42.8-.73,2a4.81,4.81,0,0,0-.1,2.06,8.91,8.91,0,0,0,1,2.45,7.63,7.63,0,0,1,.61,1.53A5.49,5.49,0,0,1,131.73,354.08Z" style="fill:#fff"></path></g><g style="opacity:0.30000000000000004"><path d="M160.61,389.42a10.62,10.62,0,0,0-12.47,8.14q-.64,4.08,2.31,8.6c2,3,4.28,4.87,6.93,5.56a10.61,10.61,0,0,0,12.48-8.14q.63-4.05-2.32-8.58T160.61,389.42ZM163.74,403a9,9,0,0,1,1.28,4.15,6.73,6.73,0,0,1-.41,2.84c-.25.63-.53.92-.68.87-.37-.1-.13-1.48-.64-3.46a9.47,9.47,0,0,0-1.46-3.16,9.25,9.25,0,0,0-3.24-2.71,13.41,13.41,0,0,1-4.13-3.13,8.09,8.09,0,0,1-1.7-4.05,6.38,6.38,0,0,1,.26-2.88c.24-.65.51-.94.67-.9.36.09.14,1.49.78,3.41a8,8,0,0,0,1.72,3,15,15,0,0,0,3.65,2.46,12.28,12.28,0,0,1,2.22,1.57A8.85,8.85,0,0,1,163.74,403Z" style="fill:#fff"></path></g><ellipse cx="207.14" cy="445.09" rx="59.09" ry="23" transform="translate(-94.94 58.1) rotate(-13.02)" style="fill:#ED500A"></ellipse></g></svg>
